<svg width="24" height="25" viewBox="0 0 24 25" fill="none" xmlns="http://www.w3.org/2000/svg">
<path fill-rule="evenodd" clip-rule="evenodd" d="M3 12.5466C3 17.5172 7.02944 21.5466 12 21.5466C14.4858 21.5466 16.7331 20.5414 18.364 18.9106C19.9948 17.2797 21 15.0324 21 12.5466C21 7.57607 16.9706 3.54663 12 3.54663C9.51417 3.54663 7.26691 4.5518 5.63604 6.18267C4.00517 7.81354 3 10.0608 3 12.5466ZM19.7782 20.3248C21.7688 18.3342 23 15.5842 23 12.5466C23 6.4715 18.0751 1.54663 12 1.54663C8.96243 1.54663 6.21243 2.77785 4.22183 4.76846C2.23122 6.75906 1 9.50906 1 12.5466C1 18.6217 5.92487 23.5466 12 23.5466C15.0376 23.5466 17.7876 22.3154 19.7782 20.3248Z" fill="black"/>
<path fill-rule="evenodd" clip-rule="evenodd" d="M10.4614 11.1109L6.61742 17.5176C6.45673 17.7854 6.76121 18.0899 7.02901 17.9292L13.4357 14.0852C13.4779 14.0599 13.5132 14.0245 13.5386 13.9823L17.3826 7.57565C17.5433 7.30784 17.2388 7.00337 16.971 7.16405L10.5643 11.008C10.5221 11.0334 10.4867 11.0687 10.4614 11.1109ZM12.7071 13.2537C12.8881 13.0727 13 12.8227 13 12.5466C13 11.9943 12.5523 11.5466 12 11.5466C11.7238 11.5466 11.4738 11.6585 11.2929 11.8395C11.1119 12.0205 11 12.2705 11 12.5466C11 13.0989 11.4477 13.5466 12 13.5466C12.2761 13.5466 12.5261 13.4347 12.7071 13.2537Z" fill="black"/>
</svg>
