<svg width="39" height="65" viewBox="0 0 39 65" fill="none" xmlns="http://www.w3.org/2000/svg">
<path d="M18.722 0.0784749C19.2827 0.00838964 19.6784 0.3136 20.0672 0.650461C22.1178 2.41842 24.1706 4.18638 26.2212 5.95207C26.4133 6.11711 26.5987 6.28668 26.7909 6.45171C28.0411 7.52786 29.4021 7.72003 30.9169 7.03274C32.6916 6.22789 34.4867 5.466 36.2727 4.68828C37.8983 3.98064 38.2917 4.22707 38.2984 5.9566C38.3233 12.8905 38.3301 19.8244 38.3889 26.7584C38.3957 27.631 38.1244 28.1036 37.3489 28.5399C30.8038 32.2092 25.3101 37.1129 20.6641 42.9797C17.9421 46.4162 15.6405 50.1216 13.6985 54.0532C12.1973 57.0895 10.9494 60.2252 9.95686 63.4627C9.88451 63.7024 9.8619 63.9646 9.59286 64.0867C8.22281 64.0844 6.85275 64.0912 5.4827 64.0754C4.23473 64.0596 3.97021 63.6956 4.29351 62.4657C5.04636 59.6058 6.07955 56.8408 7.13987 54.0848C7.40213 53.4021 7.3863 52.9137 6.81658 52.3553C5.5347 51.0938 4.33646 49.7463 3.10206 48.4328C1.91061 47.1645 1.12611 45.7402 0.990457 43.9428C0.857069 42.1726 0.902282 40.4182 1.07184 38.6593C3.40727 40.2871 5.62739 42.0483 7.47448 44.2413C7.81586 44.6459 8.25445 44.9805 8.68627 45.2948C9.15426 45.6317 9.7579 45.5028 10.1174 45.0348C10.357 44.7228 10.4723 44.3249 10.7775 44.0536C11.562 44.4379 11.7565 44.4447 12.2719 43.8569C14.9804 40.7506 14.4966 37.296 12.1205 35.1641C10.9878 34.149 9.7466 33.2876 8.48732 32.4443C6.38929 31.0403 4.2189 29.7517 2.2226 28.1962C1.32731 27.4999 0.884198 26.7561 0.897763 25.5601C0.961066 20.1817 0.922633 14.8009 0.927155 9.42243C0.927155 7.83533 0.947501 6.24598 0.961066 4.65889C2.81946 5.45696 4.68689 6.23016 6.52946 7.05987C8.10299 7.76751 9.47304 7.54595 10.6961 6.34094C10.7707 6.26859 10.8725 6.22337 10.9629 6.16685C11.9215 6.12164 12.6178 5.52252 13.3255 4.99349C15.2833 3.533 16.9948 1.7967 18.722 0.0829966V0.0784749Z" fill="#3AC0CA"/>
</svg>
