<svg width="41" height="54" viewBox="0 0 41 54" fill="none" xmlns="http://www.w3.org/2000/svg">
<path d="M39.2915 50.4961C37.2212 48.4258 33.8813 48.4258 31.811 50.4961C29.7407 52.5664 26.4009 52.5664 24.3306 50.4961C22.2603 48.4258 18.9204 48.4258 16.8501 50.4961C14.7798 52.5664 11.4399 52.5664 9.36963 50.4961C7.29932 48.4258 3.95947 48.4258 1.88916 50.4961V39.2852C3.95947 37.2148 7.29932 37.2148 9.36963 39.2852C11.4399 41.3555 14.7798 41.3555 16.8501 39.2852C18.9204 37.2148 22.2603 37.2148 24.3306 39.2852C26.4009 41.3555 29.7407 41.3555 31.811 39.2852C33.8813 37.2148 37.2212 37.2148 39.2915 39.2852V50.4961Z" fill="#FE8E46"/>
<path d="M31.811 39.2852C29.7407 41.3555 26.4009 41.3555 24.3306 39.2852C22.2603 37.2148 18.9204 37.2148 16.8501 39.2852C14.7798 41.3555 11.4399 41.3555 9.36963 39.2852C7.29932 37.2148 3.95947 37.2148 1.88916 39.2852C1.88916 39.2852 1.88916 42.1953 1.88916 45.0469C3.95947 42.9766 7.29932 42.9766 9.36963 45.0469C11.4399 47.1172 14.7798 47.1172 16.8501 45.0469C18.9204 42.9766 22.2603 42.9766 24.3306 45.0469C26.4009 47.1172 29.7407 47.1172 31.811 45.0469C33.8813 42.9766 37.2212 42.9766 39.2915 45.0469C39.2915 42.1953 39.2915 39.2852 39.2915 39.2852C37.2212 37.2148 33.8813 37.2148 31.811 39.2852Z" fill="#E56823"/>
<path d="M6.30295 8.13293C9.33029 6.62902 13.0608 6.72668 16.0881 8.71886C19.1154 10.7111 20.6584 14.1095 20.4631 17.4689C17.4358 18.9728 13.7053 18.8751 10.6779 16.8829C7.67014 14.9103 6.10764 11.5118 6.30295 8.13293Z" fill="#70B8B2"/>
<path d="M20.4633 17.4883C17.4359 18.9922 13.7055 18.8945 10.6781 16.9023C7.65078 14.9102 6.10781 11.5117 6.30313 8.13281" fill="#7EB595"/>
<path d="M38.4905 3.2695C34.6429 1.35544 29.9163 1.47262 26.0687 4.01169C22.221 6.55075 20.2483 10.8476 20.5023 15.1445C24.3499 17.0586 29.0765 16.9414 32.9241 14.4023C36.7718 11.8632 38.7444 7.56637 38.4905 3.2695Z" fill="#70B8B2"/>
<path d="M38.4907 3.2696C38.4907 3.2696 29.9165 1.47273 26.0688 4.01179C22.2212 6.55085 20.5024 15.1446 20.5024 15.1446L38.4907 3.2696Z" fill="#7EB595"/>
<path d="M26.0688 17.8203C23.9594 17.8203 21.8501 17.332 19.8969 16.375C19.4673 16.1602 19.1743 15.7109 19.1352 15.2227C18.8423 10.3203 21.2055 5.57423 25.3071 2.87891C29.4087 0.164069 34.6821 -0.148431 39.0962 2.0586C39.5259 2.27344 39.8188 2.72266 39.8579 3.21094C40.1509 8.11329 37.7876 12.8594 33.686 15.5547C31.3813 17.0391 28.7251 17.8203 26.0688 17.8203ZM21.8501 14.2461C25.229 15.6328 29.1157 15.2617 32.1626 13.25C35.229 11.2383 37.0844 7.80079 37.1235 4.14844C33.7446 2.76173 29.8579 3.13282 26.811 5.14454C23.7641 7.17579 21.9087 10.6133 21.8501 14.2461Z" fill="#463218"/>
<path d="M16.0881 19.8905C13.9397 19.8905 11.7913 19.2655 9.9358 18.0546C6.61549 15.8671 4.70143 12.0389 4.9358 8.07411C4.95533 7.58583 5.2483 7.15614 5.69752 6.92176C9.25221 5.14442 13.5296 5.39833 16.8303 7.58583C20.1506 9.77332 22.0647 13.6014 21.8303 17.5663C21.8108 18.0546 21.5178 18.4843 21.0686 18.7186C19.5061 19.4999 17.7874 19.8905 16.0881 19.8905ZM7.67018 9.03114C7.76783 11.7264 9.17408 14.246 11.4397 15.7499C13.7053 17.2538 16.5764 17.5468 19.1155 16.5897C19.0178 13.8944 17.6116 11.3749 15.346 9.87098C13.0608 8.36707 10.1897 8.07411 7.67018 9.03114Z" fill="#463218"/>
<path d="M20.4829 44.8516C19.7212 44.8516 19.1157 44.2461 19.1157 43.4844V15.1445C19.1157 14.3828 19.7212 13.7773 20.4829 13.7773C21.2446 13.7773 21.8501 14.3828 21.8501 15.1445V43.5039C21.8501 44.2461 21.2446 44.8516 20.4829 44.8516Z" fill="#463218"/>
<path d="M28.0806 53.4063C26.3813 53.4063 24.6821 52.7617 23.3735 51.4531C22.6313 50.7109 21.6548 50.3008 20.6001 50.3008C19.5454 50.3008 18.5688 50.7109 17.8267 51.4531C15.229 54.0508 11.0103 54.0508 8.4126 51.4531C6.88916 49.9297 4.38916 49.9297 2.86572 51.4531C2.4751 51.8438 1.88916 51.9609 1.38135 51.7461C0.873536 51.5313 0.541504 51.043 0.541504 50.4766V39.2656C0.541504 38.8945 0.678223 38.5625 0.932129 38.3086C2.18213 37.0586 3.86181 36.3555 5.63916 36.3555C7.4165 36.3555 9.09619 37.0391 10.3462 38.3086C11.8696 39.832 14.3696 39.832 15.8931 38.3086C17.1431 37.0586 18.8228 36.3555 20.6001 36.3555C22.3774 36.3555 24.0571 37.0391 25.3071 38.3086C26.8306 39.832 29.3306 39.832 30.854 38.3086C32.104 37.0586 33.7837 36.3555 35.561 36.3555C37.3384 36.3555 39.0181 37.0391 40.2681 38.3086C40.522 38.5625 40.6587 38.9141 40.6587 39.2656V50.4766C40.6587 51.0234 40.3267 51.5313 39.8188 51.7461C39.311 51.9609 38.7251 51.8438 38.3345 51.4531C36.811 49.9297 34.311 49.9297 32.7876 51.4531C31.479 52.7617 29.7798 53.4063 28.0806 53.4063ZM20.6001 47.5664C22.3774 47.5664 24.0571 48.25 25.3071 49.5195C26.8306 51.043 29.3306 51.043 30.854 49.5195C32.104 48.2695 33.7837 47.5664 35.561 47.5664C36.3813 47.5664 37.1821 47.7227 37.9243 47.9961V39.8906C36.3813 38.7188 34.1743 38.8359 32.7876 40.2422C31.5376 41.4922 29.8579 42.1953 28.0806 42.1953C26.3032 42.1953 24.6235 41.5117 23.3735 40.2422C22.6313 39.5 21.6548 39.0898 20.6001 39.0898C19.5454 39.0898 18.5688 39.5 17.8267 40.2422C16.5767 41.4922 14.897 42.1953 13.1196 42.1953C11.3423 42.1953 9.6626 41.5117 8.4126 40.2422C7.00635 38.8359 4.79932 38.7188 3.27588 39.8906V47.9961C4.01807 47.7031 4.81885 47.5664 5.63916 47.5664C7.4165 47.5664 9.09619 48.25 10.3462 49.5195C11.8696 51.043 14.3696 51.043 15.8931 49.5195C17.1431 48.2695 18.8228 47.5664 20.6001 47.5664Z" fill="#463218"/>
<path d="M31.8187 7.70425L28.3154 10.0549L29.4908 11.8066L32.994 9.45587L31.8187 7.70425Z" fill="white"/>
<path d="M34.2147 6.10859L32.8848 7.00098L34.0601 8.7526L35.39 7.86021L34.2147 6.10859Z" fill="white"/>
</svg>
