<svg width="24" height="25" viewBox="0 0 24 25" fill="none" xmlns="http://www.w3.org/2000/svg">
<path d="M20 14.5076C20 13.8996 19.724 13.3256 19.249 12.9456L15 9.54663H9L4.751 12.9456C4.276 13.3246 4 13.8996 4 14.5076V21.5466H20V14.5076ZM6 19.5466V14.5076L9.701 11.5466H14.298L18 14.5076V19.5466H6Z" fill="black"/>
<path d="M22.7339 7.00963C19.8679 4.14363 15.9699 2.56763 11.9999 2.54663C8.02986 2.56763 4.13186 4.14363 1.26586 7.00963C0.841859 7.43363 0.989859 7.99563 1.26586 8.27263L3.48186 10.4886C3.65686 10.6636 3.88586 10.7516 4.11586 10.7516C4.33686 10.7516 4.55886 10.6696 4.73186 10.5046C5.13986 10.1166 5.66286 9.63863 6.03486 9.37863C6.43686 9.09663 6.96686 8.80263 7.34686 8.60263C7.64486 8.44563 7.82886 8.13663 7.83086 7.79963L7.83886 5.00763C9.30086 4.55363 10.6579 4.37163 11.9609 4.37163C11.9739 4.37163 11.9869 4.37163 11.9999 4.37163C12.0129 4.37163 12.0259 4.37163 12.0389 4.37163C13.3429 4.37163 14.6989 4.55363 16.1609 5.00763L16.1689 7.79963C16.1699 8.13663 16.3549 8.44563 16.6529 8.60263C17.0319 8.80263 17.5619 9.09563 17.9649 9.37763C18.3369 9.63763 18.8609 10.1156 19.2679 10.5036C19.4409 10.6686 19.6629 10.7506 19.8839 10.7506C20.1129 10.7506 20.3429 10.6626 20.5179 10.4876L22.7339 8.27163C23.0109 7.99563 23.1589 7.43363 22.7339 7.00963ZM5.83186 7.15163C5.46586 7.35963 5.14986 7.55663 4.88686 7.74063C4.67486 7.88863 4.43086 8.08363 4.14886 8.32763L3.49586 7.67463C4.21686 7.06763 5.00286 6.54163 5.83486 6.10163L5.83186 7.15163ZM19.8509 8.32763C19.5689 8.08363 19.3249 7.88863 19.1129 7.74063C18.8509 7.55663 18.5339 7.35963 18.1679 7.15163L18.1649 6.10263C18.9969 6.54163 19.7829 7.06863 20.5039 7.67563L19.8509 8.32763Z" fill="black"/>
<path d="M9 7.54663H11V10.5466H9V7.54663ZM13 7.54663H15V10.5466H13V7.54663ZM3 19.5466H21V21.5466H3V19.5466ZM12 13.5466C11.7348 13.5466 11.4804 13.652 11.2929 13.8395C11.1054 14.0271 11 14.2814 11 14.5466C11 14.8118 11.1054 15.0662 11.2929 15.2537C11.4804 15.4413 11.7348 15.5466 12 15.5466C12.2652 15.5466 12.5196 15.4413 12.7071 15.2537C12.8946 15.0662 13 14.8118 13 14.5466C13 14.2814 12.8946 14.0271 12.7071 13.8395C12.5196 13.652 12.2652 13.5466 12 13.5466ZM15 13.5466C14.7348 13.5466 14.4804 13.652 14.2929 13.8395C14.1054 14.0271 14 14.2814 14 14.5466C14 14.8118 14.1054 15.0662 14.2929 15.2537C14.4804 15.4413 14.7348 15.5466 15 15.5466C15.2652 15.5466 15.5196 15.4413 15.7071 15.2537C15.8946 15.0662 16 14.8118 16 14.5466C16 14.2814 15.8946 14.0271 15.7071 13.8395C15.5196 13.652 15.2652 13.5466 15 13.5466ZM9 13.5466C8.73478 13.5466 8.48043 13.652 8.29289 13.8395C8.10536 14.0271 8 14.2814 8 14.5466C8 14.8118 8.10536 15.0662 8.29289 15.2537C8.48043 15.4413 8.73478 15.5466 9 15.5466C9.26522 15.5466 9.51957 15.4413 9.70711 15.2537C9.89464 15.0662 10 14.8118 10 14.5466C10 14.2814 9.89464 14.0271 9.70711 13.8395C9.51957 13.652 9.26522 13.5466 9 13.5466ZM12 16.5466C11.7348 16.5466 11.4804 16.652 11.2929 16.8395C11.1054 17.0271 11 17.2814 11 17.5466C11 17.8118 11.1054 18.0662 11.2929 18.2537C11.4804 18.4413 11.7348 18.5466 12 18.5466C12.2652 18.5466 12.5196 18.4413 12.7071 18.2537C12.8946 18.0662 13 17.8118 13 17.5466C13 17.2814 12.8946 17.0271 12.7071 16.8395C12.5196 16.652 12.2652 16.5466 12 16.5466ZM15 16.5466C14.7348 16.5466 14.4804 16.652 14.2929 16.8395C14.1054 17.0271 14 17.2814 14 17.5466C14 17.8118 14.1054 18.0662 14.2929 18.2537C14.4804 18.4413 14.7348 18.5466 15 18.5466C15.2652 18.5466 15.5196 18.4413 15.7071 18.2537C15.8946 18.0662 16 17.8118 16 17.5466C16 17.2814 15.8946 17.0271 15.7071 16.8395C15.5196 16.652 15.2652 16.5466 15 16.5466ZM9 16.5466C8.73478 16.5466 8.48043 16.652 8.29289 16.8395C8.10536 17.0271 8 17.2814 8 17.5466C8 17.8118 8.10536 18.0662 8.29289 18.2537C8.48043 18.4413 8.73478 18.5466 9 18.5466C9.26522 18.5466 9.51957 18.4413 9.70711 18.2537C9.89464 18.0662 10 17.8118 10 17.5466C10 17.2814 9.89464 17.0271 9.70711 16.8395C9.51957 16.652 9.26522 16.5466 9 16.5466Z" fill="black"/>
</svg>
