<svg width="24" height="25" viewBox="0 0 24 25" fill="none" xmlns="http://www.w3.org/2000/svg">
<path fill-rule="evenodd" clip-rule="evenodd" d="M13.9153 17.69C15.5414 15.5783 17 12.824 17 9.81936C17 8.37703 16.5633 7.04381 15.7749 6.1077C15.0284 5.22133 13.8512 4.54663 12 4.54663C10.1488 4.54663 8.97157 5.22133 8.22507 6.1077C7.4367 7.0438 7 8.37703 7 9.81936C7 12.824 8.45863 15.5783 10.0847 17.69C10.7626 18.5704 11.4427 19.3038 12 19.8552C12.5573 19.3038 13.2374 18.5704 13.9153 17.69ZM12 22.5466C12 22.5466 19 17.0921 19 9.81936C19 6.18299 16.8125 2.54663 12 2.54663C7.1875 2.54663 5 6.18299 5 9.81936C5 17.0921 12 22.5466 12 22.5466Z" fill="black"/>
<path fill-rule="evenodd" clip-rule="evenodd" d="M12 12.5466C13.6569 12.5466 15 11.2035 15 9.54663C15 7.88978 13.6569 6.54663 12 6.54663C10.3431 6.54663 9 7.88978 9 9.54663C9 11.2035 10.3431 12.5466 12 12.5466ZM12 10.8323C12.7101 10.8323 13.2857 10.2567 13.2857 9.54663C13.2857 8.83655 12.7101 8.26092 12 8.26092C11.2899 8.26092 10.7143 8.83655 10.7143 9.54663C10.7143 10.2567 11.2899 10.8323 12 10.8323Z" fill="black"/>
</svg>
