<svg width="24" height="25" viewBox="0 0 24 25" fill="none" xmlns="http://www.w3.org/2000/svg">
<path d="M12 17.5466C9.2 17.5466 7 15.3466 7 12.5466C7 9.74663 9.2 7.54663 12 7.54663C14.8 7.54663 17 9.74663 17 12.5466C17 15.3466 14.8 17.5466 12 17.5466ZM12 9.54663C10.3 9.54663 9 10.8466 9 12.5466C9 14.2466 10.3 15.5466 12 15.5466C13.7 15.5466 15 14.2466 15 12.5466C15 10.8466 13.7 9.54663 12 9.54663Z" fill="black"/>
<path d="M17 22.5466H12C6.5 22.5466 2 18.0466 2 12.5466C2 7.04663 6.5 2.54663 12 2.54663C17.5 2.54663 22 7.04663 22 12.5466V14.0466C22 15.9466 20.4 17.5466 18.5 17.5466C16.6 17.5466 15 15.9466 15 14.0466V12.5466H17V14.0466C17 14.8466 17.7 15.5466 18.5 15.5466C19.3 15.5466 20 14.8466 20 14.0466V12.5466C20 8.14663 16.4 4.54663 12 4.54663C7.6 4.54663 4 8.14663 4 12.5466C4 16.9466 7.6 20.5466 12 20.5466H17V22.5466Z" fill="black"/>
</svg>
