<svg width="14" height="25" viewBox="0 0 14 25" fill="none" xmlns="http://www.w3.org/2000/svg">
<path fill-rule="evenodd" clip-rule="evenodd" d="M0 3.54663C0 1.88977 1.34315 0.546631 3 0.546631H11C12.6569 0.546631 14 1.88978 14 3.54663V21.5466C14 23.2035 12.6569 24.5466 11 24.5466H3C1.34315 24.5466 0 23.2035 0 21.5466V3.54663ZM3 2.54663C2.44771 2.54663 2 2.99435 2 3.54663V21.5466C2 22.0989 2.44772 22.5466 3 22.5466H11C11.5523 22.5466 12 22.0989 12 21.5466V3.54663C12 2.99435 11.5523 2.54663 11 2.54663H3ZM5 19.5466C5 18.9943 5.4477 18.5466 6 18.5466H8C8.5523 18.5466 9 18.9943 9 19.5466C9 20.0989 8.5523 20.5466 8 20.5466H6C5.4477 20.5466 5 20.0989 5 19.5466Z" fill="#293644"/>
</svg>
