<svg width="135" height="66" viewBox="0 0 135 66" fill="none" xmlns="http://www.w3.org/2000/svg">
<g clip-path="url(#clip0_17_1403)">
<path d="M132.992 29.2888C132.366 29.9241 131.507 30.2248 130.831 30.7878C130.65 30.7742 130.453 30.7335 130.426 31.0071L130.431 30.9845C130.243 31.0025 130.076 31.05 130.037 31.2716L130.049 31.2671C129.761 31.2083 129.576 31.4072 129.368 31.5406C123.406 35.3139 118.41 40.1317 114.189 45.7521C111.539 49.2812 109.373 53.1156 107.547 57.1308C106.38 59.6923 105.34 62.3081 104.608 65.0346C104.223 65.7422 103.644 66.0022 102.828 65.9887C100.588 65.948 98.3474 65.9796 96.1069 65.9728C95.2455 65.9706 95.2342 65.9548 95.44 65.1409C96.2561 61.9192 97.2803 58.7631 98.5621 55.6997C98.8447 55.0237 98.7543 54.5987 98.2886 54.0674C96.8575 52.4351 95.3812 50.848 93.724 49.444C92.8626 48.716 92.4286 47.8524 92.4399 46.7175C92.4647 44.1899 92.4466 41.66 92.4489 39.1302C92.4489 38.8431 92.415 38.5514 92.5506 38.2779C92.7903 37.794 93.299 37.6335 93.8348 37.8845C94.2575 38.0834 94.5786 38.4632 95.0466 38.5876C95.2636 38.9403 95.6434 39.1031 95.9554 39.3359C98.1891 41.0021 100.278 42.8334 102.22 44.832C103.008 45.6428 103.65 45.5464 104.146 44.5426C104.176 44.4815 104.173 44.4024 104.187 44.3323C105.08 43.3353 105.679 42.1303 106.475 41.0632C106.762 40.6766 106.624 40.3148 106.31 40.0006C105.722 39.415 105.146 38.8182 104.547 38.2439C101.221 35.0607 97.5719 32.3025 93.5386 30.0801C92.6592 29.5963 92.3359 29.0017 92.3404 28.0137C92.372 21.0504 92.3562 14.0849 92.3585 7.12154C92.3585 6.86833 92.3449 6.61286 92.3766 6.36417C92.5371 5.1162 93.62 4.4357 94.8114 4.85621C94.9901 4.91951 95.1415 4.95116 95.3179 4.92855C97.2938 5.80349 99.2653 6.68747 101.248 7.54658C101.985 7.86535 102.718 7.84727 103.387 7.33632C103.803 7.25267 104.058 6.93164 104.354 6.67616C106.4 4.91725 108.467 3.1832 110.47 1.37681C111.428 0.51318 112.43 0.0745815 113.705 0.425008C114.397 0.992473 115.1 1.54863 115.778 2.13192C117.573 3.67606 119.362 5.2315 121.148 6.78694C122.183 7.68901 123.3 8.053 124.589 7.32728C126.316 6.59477 128.052 5.88714 129.764 5.12072C130.661 4.7183 131.529 4.3317 132.522 4.76804C132.96 5.38072 133.062 6.05896 133.062 6.80729C133.042 13.9063 133.051 21.0052 133.046 28.1019C133.046 28.4976 133.01 28.8932 132.992 29.2888ZM104.777 45.049C104.472 45.3203 104.357 45.7182 104.117 46.0302C103.758 46.5004 103.152 46.627 102.686 46.2902C102.254 45.9782 101.815 45.6436 101.474 45.2366C99.627 43.0436 97.4069 41.2847 95.0714 39.6547C94.6916 39.2048 94.1739 38.9335 93.6946 38.6215C93.3668 38.4067 93.1497 38.5198 93.1407 38.9335C93.1362 39.1144 93.1362 39.2952 93.1362 39.4738C93.1362 41.8205 93.1611 44.165 93.1249 46.5117C93.1091 47.5336 93.4685 48.2978 94.2462 48.9579C96.0142 50.4523 97.5787 52.1502 99.0799 53.9114C99.5614 54.4766 99.6473 54.9446 99.3466 55.65C98.1122 58.5348 97.1265 61.5123 96.3262 64.5485C96.2674 64.7746 96.0933 65.003 96.3352 65.2833C98.578 65.2833 100.85 65.2833 103.122 65.2833C103.305 65.2833 103.482 65.2629 103.59 65.0821C103.859 64.96 103.88 64.6955 103.954 64.4581C104.947 61.2206 106.195 58.0849 107.696 55.0486C109.638 51.1193 111.939 47.4115 114.661 43.9751C119.31 38.1083 124.801 33.2068 131.346 29.5353C132.122 29.1012 132.393 28.6264 132.386 27.7538C132.33 20.8198 132.321 13.8859 132.296 6.95198C132.289 5.22246 131.896 4.97603 130.27 5.68367C128.484 6.46139 126.689 7.22328 124.914 8.02813C123.399 8.71542 122.038 8.52325 120.788 7.4471C120.596 7.28206 120.411 7.1125 120.219 6.94746C118.168 5.1795 116.115 3.41381 114.065 1.64585C113.676 1.30899 113.278 1.00378 112.719 1.07386C112.256 0.960821 111.867 1.12812 111.53 1.42203C109.339 3.33242 107.079 5.16368 104.96 7.15772C104.87 7.21424 104.768 7.25945 104.693 7.3318C103.47 8.53682 102.098 8.76064 100.527 8.05074C98.6842 7.22102 96.8145 6.44782 94.9584 5.64975C93.7398 5.16594 93.1271 5.52541 93.0751 6.75981C93.0684 6.94068 93.0751 7.12154 93.0751 7.30241C93.0751 14.1301 93.0887 20.9577 93.0593 27.7854C93.0548 28.6355 93.2741 29.1306 94.0676 29.5714C98.7114 32.151 102.837 35.4157 106.541 39.2206C107.576 40.2832 107.592 40.6766 106.742 41.9404C106.059 42.9577 105.299 43.9276 104.779 45.049H104.777Z" fill="#262A56"/>
<path d="M18.7012 32.8112C17.4464 31.2377 17.1796 29.6936 17.5753 28.0206C18.0568 25.9881 19.3523 24.9413 21.43 24.9006C22.1557 24.8871 22.8769 24.8893 23.5506 25.2262C24.3894 25.6444 24.7466 26.3724 24.5906 27.2835C24.5047 27.7809 24.204 28.0567 23.7383 28.1381C23.4037 28.1969 23.0781 28.154 23.0261 27.6973C22.9176 26.7726 22.2439 26.3973 21.4594 26.3091C20.6749 26.2187 20.087 26.7025 19.6756 27.3423C18.6582 28.9294 19.0832 32.3545 22.1602 32.7434C22.8023 32.8248 23.4602 32.7773 24.109 32.8135C24.6833 32.8451 24.9659 33.1232 24.9139 33.5957C24.8619 34.075 24.577 34.283 24.0955 34.2446C22.739 34.1361 21.3418 34.5204 20.0305 33.8987C19.8542 33.815 19.6914 33.8738 19.5128 33.9168C17.2723 34.4707 15.0273 34.4548 12.7846 33.9236C12.5608 33.8716 12.3867 33.8693 12.1697 33.9371C10.4718 34.4481 8.75131 34.3554 7.04213 34.0162C6.69849 33.9484 6.42267 33.9688 6.10842 34.0479C5.25835 34.2649 4.40602 34.3124 3.53335 34.1361C2.43007 33.9145 1.6953 33.2792 1.38105 32.2279C0.852019 30.4555 0.858802 28.6559 1.38105 26.8856C1.73374 25.6942 2.60189 25.0295 3.84986 24.9368C4.46028 24.8916 5.08201 24.8803 5.69017 24.9345C7.50786 25.0928 8.35341 25.9881 8.40315 27.808C8.4348 28.9995 8.39862 30.1932 8.41219 31.3869C8.43254 33.0577 8.18159 32.8022 9.85007 32.8067C12.4726 32.8135 11.9006 32.8655 11.9436 30.7403C11.9752 29.151 11.9481 27.5594 11.9504 25.9677C11.9504 25.5224 11.973 25.0815 12.5156 24.9278C13.2481 24.7198 13.7161 25.0431 13.7319 25.8344C13.7568 27.2067 13.7387 28.5812 13.7387 29.9558C13.7387 30.4622 13.7296 30.9687 13.7409 31.4751C13.7703 32.7411 13.8404 32.8067 15.1065 32.809C16.2188 32.809 17.3311 32.809 18.6966 32.809L18.7012 32.8112ZM6.61258 30.209H6.56058C6.56058 29.3793 6.60127 28.5451 6.54702 27.7176C6.50406 27.0597 6.13555 26.5601 5.47313 26.3589C4.76097 26.1441 4.11212 26.2843 3.5763 26.8178C3.31631 27.0755 3.17162 27.4056 3.05179 27.7538C2.79858 28.4908 2.81441 29.2504 2.85058 30.0078C2.95458 32.1895 3.74134 32.8813 5.92529 32.8203C6.42041 32.8067 6.65553 32.7072 6.62162 32.1579C6.58093 31.509 6.61258 30.8579 6.61258 30.2068V30.209Z" fill="#262A56"/>
<path d="M43.5747 22.009C44.9674 20.9894 46.091 21.4009 46.36 22.9179C46.403 23.1643 46.4211 23.4198 46.4211 23.6707C46.4256 25.9112 46.4324 28.1517 46.4166 30.3899C46.4143 30.8556 46.3578 31.3281 46.2628 31.7871C45.944 33.3448 44.8769 34.2197 43.2876 34.2423C42.3561 34.2559 41.4269 34.2446 40.5113 34.2446C40.3395 34.8731 40.4661 35.4202 40.4028 35.9537C40.2604 37.1475 39.7607 38.1671 38.5557 38.5152C37.4434 38.8385 36.2904 38.8385 35.3408 37.7534C35.7952 37.7534 36.1457 37.7601 36.4961 37.7534C37.8684 37.7217 38.6303 36.9711 38.6371 35.5898C38.6507 32.5557 38.6416 29.5195 38.6416 26.4854C38.6416 26.2322 38.6258 25.979 38.6461 25.7281C38.6936 25.0905 38.9084 24.8961 39.5279 24.9029C40.1473 24.9097 40.4005 25.1086 40.4073 25.7326C40.4277 27.5752 40.4141 29.4177 40.4141 31.2603C40.4141 31.5858 40.4299 31.9114 40.4141 32.2347C40.3915 32.6394 40.5543 32.8203 40.9703 32.8135C41.8022 32.7999 42.632 32.8293 43.4639 32.8044C44.1829 32.7818 44.4383 32.5557 44.5356 31.8481C44.6034 31.3485 44.6192 30.8398 44.6215 30.3356C44.6305 28.5292 44.6169 26.7228 44.6283 24.9164C44.635 23.8358 44.4655 22.8274 43.5792 22.009H43.5747Z" fill="#262A56"/>
<path d="M120.465 64.9193C120.065 65.7784 119.407 66.0294 118.46 65.9955C116.405 65.9209 114.345 65.9842 112.288 65.9684C111.124 65.9593 110.728 65.3964 111.139 64.2886C115.075 53.6401 121.489 44.8704 130.84 38.3254C131.507 37.8596 132.111 37.6675 132.798 38.2146C132.911 38.6373 132.907 39.0692 132.907 39.5032C132.907 42.0625 132.882 44.6217 132.931 47.1787C132.947 48.0152 132.69 48.594 132.05 49.1298C128.57 52.0485 125.699 55.5008 123.321 59.36C122.226 61.137 121.198 62.9547 120.465 64.9216V64.9193ZM131.521 38.8295L131.539 38.8137C131.252 38.8679 131.028 39.0172 130.87 39.2613L130.883 39.2478C130.515 39.3337 130.264 39.605 129.977 39.8175C123.262 44.78 118.146 51.0786 114.384 58.5031C113.421 60.4022 112.58 62.3533 111.854 64.3519C111.562 65.1545 111.641 65.2788 112.428 65.2833C114.594 65.2969 116.758 65.2878 118.923 65.2856C119.134 65.2856 119.378 65.3172 119.382 64.9917C119.656 64.8312 119.708 64.535 119.825 64.2773C122.572 58.2024 126.447 52.9596 131.487 48.5917C131.966 48.1757 132.203 47.7823 132.194 47.1358C132.165 44.6443 132.192 42.1529 132.188 39.6615C132.188 39.3472 132.278 39.0059 132.02 38.7323C131.815 38.5673 131.638 38.556 131.516 38.8273L131.521 38.8295Z" fill="#262A56"/>
<path d="M104.612 65.0345C105.343 62.308 106.385 59.6945 107.551 57.1307C109.378 53.1155 111.544 49.2811 114.194 45.752C118.415 40.1293 123.411 35.3138 129.373 31.5405C129.581 31.4094 129.766 31.2104 130.053 31.2669C130.015 31.6535 129.662 31.7553 129.418 31.9429C122.916 36.9416 117.338 42.7926 112.975 49.7649C110.28 54.0741 108.171 58.65 106.756 63.5378C106.706 63.7119 106.656 63.886 106.597 64.0556C106.326 64.8378 106.091 65.0164 105.261 65.0548C105.046 65.0639 104.829 65.0435 104.612 65.0368V65.0345Z" fill="#3AC0CA"/>
<path d="M69.7684 21.9841C70.3833 21.3714 71.0412 21.2629 71.7149 21.5794C72.3796 21.8914 72.5582 22.5312 72.5582 23.2207C72.5627 25.4612 72.565 27.7039 72.5582 29.9444C72.5582 30.4915 72.5876 31.0319 72.7549 31.5518C73.0353 32.4177 73.5191 32.7817 74.4257 32.8066C75.0406 32.8247 75.6555 32.8111 76.2705 32.8066C77.1386 32.8021 77.7197 32.3883 77.9412 31.5473C78.4861 29.4696 78.4838 27.4756 76.9736 25.7325C76.6503 25.3595 76.7294 25.1198 77.1929 24.9616C78.043 24.6722 78.9179 25.0271 79.4062 25.8817C79.7499 26.4876 79.8968 27.1568 79.9963 27.8418C80.2043 29.2684 80.0302 30.6453 79.5012 31.9859C78.936 33.4215 77.8734 34.1608 76.3564 34.2354C75.4905 34.2784 74.6201 34.2806 73.7542 34.2422C72.3502 34.1834 71.3803 33.3921 71.0005 32.0492C70.8423 31.4908 70.7857 30.9188 70.788 30.3333C70.7993 28.5269 70.7948 26.7182 70.7903 24.9096C70.7903 23.4039 70.7111 23.1868 69.7661 21.9818L69.7684 21.9841Z" fill="#262A56"/>
<path d="M132.992 29.2889C133.01 28.8933 133.046 28.4976 133.046 28.102C133.051 21.003 133.042 13.9041 133.062 6.80737C133.062 6.05904 132.961 5.3808 132.522 4.76812C133.01 4.16674 133.661 4.17578 134.285 4.40639C134.932 4.64603 134.973 5.25871 134.973 5.86009C134.973 12.9749 134.973 20.0874 134.998 27.2022C134.998 27.8646 134.792 28.31 134.204 28.5949C133.784 28.7983 133.462 29.1736 132.992 29.2889Z" fill="#3AC0CA"/>
<path d="M59.1022 24.5073C59.7963 25.0092 60.5559 24.9143 61.302 24.9165C62.3488 24.9188 63.3955 24.9007 64.4265 25.1539C66.3843 25.6332 67.5464 26.9445 67.7318 28.9453C67.7996 29.6642 67.8041 30.3877 67.6391 31.1021C67.1733 33.1391 65.896 34.1994 63.807 34.2401C62.5816 34.2627 61.3563 34.2447 60.0292 34.2447C60.0201 36.0578 60.2598 37.706 61.6027 39.0195C60.3186 39.6164 59.5747 39.4332 58.9688 38.3887C58.3539 37.3262 58.1527 36.1505 58.2386 34.9433C58.3358 33.5845 59.0095 32.9221 60.3819 32.8339C61.3902 32.7683 62.4053 32.7751 63.4159 32.7932C64.7271 32.8181 65.7603 32.1195 65.948 30.3967C65.9909 30.0034 65.9955 29.5987 65.948 29.2076C65.7694 27.6747 64.9487 26.793 63.4294 26.4991C62.5048 26.3205 61.5643 26.2979 60.6238 26.2888C59.4662 26.2798 59.0841 25.8525 59.0977 24.5096L59.1022 24.5073Z" fill="#262A56"/>
<path d="M39.1166 51.8066C39.0375 51.4924 39.2545 51.2572 39.3585 51.004C40.3035 48.7387 41.2689 46.4824 42.2275 44.2216C42.2976 44.0565 42.3609 43.8847 42.4377 43.7219C42.5146 43.5637 42.5711 43.3738 42.7927 43.3602C43.0708 43.3421 43.1454 43.5546 43.229 43.7581C43.6541 44.7936 44.0814 45.8268 44.5064 46.8622C44.945 47.9316 45.3791 49.0009 45.8245 50.0681C45.9488 50.3665 46.0799 50.6694 46.2563 50.9407C46.7604 51.7117 47.2646 51.784 47.9994 51.2256C48.1418 51.1171 48.2955 51.0244 48.4312 50.9317C48.5035 50.6694 48.1802 50.4953 48.2458 50.3235C48.5533 49.5028 48.0423 48.915 47.7846 48.2232C47.3618 47.0838 47.9609 46.0257 49.1094 45.8132C50.2376 45.6052 51.3883 45.7431 52.6001 45.8109C52.1073 46.1772 52.096 46.444 52.3921 46.9346C53.0274 47.9858 52.4893 49.123 51.3047 49.4961C50.848 49.6408 50.38 49.6475 49.9097 49.6634C49.6226 49.6724 49.3219 49.643 49.071 49.8171C48.8539 49.9686 48.7952 50.1585 49.0619 50.31C49.4191 50.5134 49.8261 50.5202 50.224 50.5112C50.8118 50.4976 51.3815 50.5835 51.9151 50.8277C52.634 51.1578 53.0297 51.6981 53.0229 52.5278C53.0161 53.3508 52.6566 53.9295 51.9038 54.2121C50.7462 54.6439 49.5616 54.6349 48.404 54.2166C47.6941 53.9612 47.2759 53.4208 47.3166 52.6386C47.3437 52.1118 47.2397 51.8609 46.627 51.8699C45.5396 51.888 44.8613 51.2301 44.5833 50.2489C44.3798 49.5345 43.9864 49.3762 43.3262 49.4169C42.605 49.4622 41.8793 49.4441 41.1581 49.4215C40.7715 49.4102 40.5635 49.5594 40.4301 49.9143C40.2289 50.4547 40.0006 50.9882 39.77 51.5172C39.6637 51.7637 39.6479 51.7569 39.1189 51.8044L39.1166 51.8066ZM50.1155 53.9702C51.1306 53.9883 51.7975 53.4457 51.8247 52.5843C51.8518 51.6664 51.0808 51.0538 49.8804 51.0402C49.1207 51.0312 48.4854 51.6981 48.4809 52.5052C48.4741 53.3801 49.1139 53.9521 50.1177 53.968L50.1155 53.9702ZM51.4403 47.6422C51.4245 46.8034 50.8864 46.236 50.1245 46.2518C49.3491 46.2676 48.8698 46.8238 48.8788 47.6965C48.8879 48.5804 49.3536 49.0642 50.1833 49.0552C50.9904 49.0439 51.4584 48.5217 51.4403 47.6445V47.6422ZM41.0541 48.7975C41.9788 48.8517 42.8967 48.8743 43.9321 48.7771C43.4348 47.6038 42.9736 46.5163 42.5033 45.404C41.911 46.2993 41.2011 47.9655 41.0541 48.7975Z" fill="#262A56"/>
<path d="M120.465 64.9192C121.197 62.9523 122.226 61.1369 123.32 59.3576C125.699 55.4962 128.57 52.0462 132.049 49.1274C132.689 48.5916 132.947 48.0129 132.931 47.1764C132.881 44.6194 132.906 42.0601 132.906 39.5009C132.906 39.0691 132.911 38.635 132.798 38.2122C132.856 38.1715 132.913 38.1218 132.978 38.0924C134.385 37.4662 134.869 37.7488 134.878 39.2454C134.891 41.6645 135.034 44.0836 134.916 46.5049C134.878 47.2849 134.618 47.8207 133.982 48.3203C131.018 50.6422 128.73 53.57 126.666 56.6876C125.07 59.0976 123.607 61.5913 122.145 64.0805C121.733 64.7791 121.245 65.0707 120.469 64.9192H120.465Z" fill="#3AC0CA"/>
<path d="M30.0708 37.7534C30.6337 37.7534 31.0249 37.7692 31.416 37.7511C32.6572 37.6946 33.4123 36.9418 33.4281 35.687C33.4507 33.7766 33.4349 31.8662 33.4349 29.9558C33.4349 28.5858 33.4213 27.2157 33.4417 25.8457C33.453 25.0567 33.7831 24.7989 34.5223 24.9097C34.9316 24.9707 35.1825 25.1742 35.1983 25.6083C35.2074 25.8253 35.2029 26.0401 35.2029 26.2571C35.2029 29.2844 35.2029 32.3139 35.2029 35.3411C35.2029 35.6282 35.2209 35.9244 35.1667 36.2047C34.9655 37.2515 34.4726 38.1016 33.4304 38.5108C32.404 38.9132 31.1696 38.6555 30.0731 37.7557L30.0708 37.7534Z" fill="#262A56"/>
<path d="M27.1226 22.0315C28.4904 20.9622 29.6954 21.4121 29.9282 22.9811C29.9712 23.2637 29.9576 23.5553 29.9576 23.8447C29.9576 26.7657 29.9599 29.6844 29.9576 32.6054C29.9576 32.9287 29.9576 33.2565 29.8988 33.573C29.8039 34.084 29.4467 34.2693 28.947 34.24C28.4655 34.2106 28.2304 33.9506 28.2055 33.4848C28.1897 33.1615 28.1784 32.836 28.1784 32.5127C28.1761 30.0258 28.1625 27.5366 28.1829 25.0497C28.1919 23.9284 28.0111 22.8952 27.1226 22.0315Z" fill="#262A56"/>
<path d="M48.6321 21.9863C50.0293 20.9735 51.1982 21.4392 51.4197 23.0172C51.4356 23.1235 51.4378 23.232 51.4378 23.3405C51.4378 26.5848 51.4378 29.8291 51.4378 33.0756C51.4378 33.4079 51.4016 33.7358 51.1823 33.9935C50.9495 34.2716 50.6126 34.2761 50.2848 34.2241C49.914 34.1653 49.7196 33.9279 49.6947 33.5594C49.6744 33.2361 49.6586 32.9128 49.6563 32.5873C49.654 30.1004 49.6563 27.6112 49.6563 25.1243C49.6563 23.5304 49.5704 23.2727 48.6299 21.9863H48.6321Z" fill="#262A56"/>
<path d="M53.4183 45.8538C54.1146 45.786 54.7612 45.6526 55.3174 46.0663C55.6045 46.2788 55.7763 46.1251 55.9911 46.0098C56.6309 45.6684 57.2865 45.578 57.9535 45.9194C58.1637 46.0279 58.3129 46.0754 58.5164 45.8741C58.6159 45.7747 58.8578 45.8086 59.0341 45.7995C60.4879 45.7204 60.7727 45.9781 60.7863 47.4115C60.7953 48.5306 60.7885 49.652 60.7863 50.7711C60.7863 51.5217 60.5715 51.8932 60.1419 51.8857C59.7516 51.8781 59.5549 51.5232 59.5519 50.8208C59.5496 49.5932 59.5519 48.3633 59.5406 47.1357C59.536 46.6338 59.4185 46.1952 58.8216 46.0912C58.5684 46.0482 58.3446 45.9894 58.2768 46.3783C58.2067 46.7762 57.9331 46.8734 57.5624 46.6835C57.4358 46.618 57.2933 46.5705 57.1531 46.5411C56.2217 46.3512 55.6113 46.8327 55.6022 47.78C55.5909 48.9353 55.5841 50.0928 55.6067 51.2481C55.6158 51.6822 55.5344 51.8992 55.028 51.9037C54.4876 51.9105 54.3588 51.7093 54.3723 51.2029C54.4063 49.9753 54.3972 48.7454 54.3769 47.5178C54.361 46.4846 54.3136 46.4303 53.416 45.8515L53.4183 45.8538Z" fill="#262A56"/>
<path d="M124.591 7.32504C123.302 8.05302 122.186 7.68677 121.15 6.78471C119.364 5.22927 117.576 3.67382 115.781 2.12969C115.102 1.5464 114.399 0.992496 113.708 0.422771C114.237 -0.144694 114.867 -0.0452182 115.505 0.162777C116.662 0.542594 117.578 1.30901 118.455 2.10934C119.651 3.19905 120.813 4.3272 121.973 5.45535C122.753 6.21498 123.619 6.84349 124.593 7.32504H124.591Z" fill="#3AC0CA"/>
<path d="M20.0575 45.3927C19.8021 44.9745 19.8767 44.6444 19.8993 44.3369C19.9535 43.6316 20.2022 43.367 20.9302 43.3557C22.809 43.3263 24.6877 43.3422 26.5664 43.3399C26.7496 43.3399 26.9711 43.3309 26.9982 43.5524C27.0389 43.8644 26.7835 43.8644 26.5619 43.8644C26.0193 43.8644 25.4767 43.8554 24.9364 43.8667C24.1677 43.8848 24.1474 43.8915 24.1428 44.6557C24.1315 46.5706 24.1383 48.4855 24.1383 50.4004C24.1383 50.6536 24.127 50.9069 24.1406 51.1601C24.1654 51.5896 24.17 51.922 23.5505 51.9107C22.9898 51.9016 22.9062 51.6778 22.9107 51.1917C22.9333 49.1321 22.9197 47.0725 22.9197 45.0129C22.9197 44.7597 22.913 44.5065 22.9039 44.2555C22.8949 43.9955 22.7457 43.9028 22.4947 43.8667C21.258 43.6813 20.4939 44.1221 20.0575 45.3927Z" fill="#262A56"/>
<path d="M30.2111 48.3838C30.3444 47.9656 30.254 47.6445 30.202 47.328C30.1116 46.7764 29.7928 46.3966 29.2389 46.288C28.676 46.1795 28.1605 46.2993 27.8033 46.8058C27.7016 46.9504 27.636 47.1268 27.5184 47.2557C27.4167 47.3664 27.2471 47.3484 27.1092 47.3031C26.9374 47.2489 26.9464 47.0974 26.9487 46.9504C26.96 46.3581 27.2991 46.0099 27.8327 45.863C28.5742 45.6595 29.3429 45.6392 30.0867 45.8087C30.869 45.9873 31.3234 46.5593 31.4319 47.337C31.6263 48.7365 31.4975 50.1495 31.5065 51.5557C31.5088 52.0056 31.043 51.9808 30.8825 51.8248C30.4326 51.393 30.0912 51.6326 29.6572 51.8248C29.0513 52.0961 28.4024 52.1232 27.7581 51.879C27.0324 51.6055 26.6684 51.0764 26.6299 50.3168C26.5915 49.5549 26.9238 49.0756 27.7106 48.7523C28.52 48.42 29.3881 48.3974 30.2111 48.377V48.3838ZM30.3083 49.8669C30.2156 49.5979 30.5366 49.0982 29.9895 49.0191C29.3339 48.9241 28.6873 49.044 28.2012 49.5572C27.6021 50.1925 27.9389 51.2257 28.7913 51.4133C29.7363 51.6213 30.3105 51.0493 30.3083 49.8646V49.8669Z" fill="#262A56"/>
<path d="M104.189 44.33C104.176 44.4001 104.18 44.477 104.149 44.5403C103.656 45.5441 103.014 45.6405 102.222 44.8297C100.28 42.8311 98.1936 40.9998 95.9577 39.3336C95.6457 39.1008 95.2659 38.938 95.0488 38.5853C95.3631 37.785 95.5937 37.629 96.2923 37.8279C97.0338 38.0404 97.6623 38.4745 98.2705 38.9335C99.9525 40.1995 101.429 41.6871 102.916 43.1657C103.323 43.5704 103.669 44.0452 104.187 44.33H104.189Z" fill="#3AC0CA"/>
<path d="M32.3679 45.9239C34.5744 45.725 34.6196 45.7679 34.6219 47.9225C34.6219 49.0755 34.6264 50.2285 34.6219 51.3838C34.6196 51.7794 34.6129 52.1796 34.5654 52.5707C34.4117 53.8549 33.8306 54.3206 32.187 54.3771C33.435 53.613 33.4372 52.4735 33.435 51.3318C33.435 50.0703 33.4259 48.8087 33.4372 47.5472C33.444 46.7785 33.3559 46.0935 32.3679 45.9239Z" fill="#262A56"/>
<path d="M103.389 7.33412C102.72 7.84507 101.987 7.86542 101.25 7.54438C99.2677 6.68527 97.2963 5.80129 95.3203 4.92636C95.7453 4.42672 96.2902 4.37472 96.8916 4.47871C97.7891 4.63471 98.6098 4.9987 99.4214 5.39208C100.746 6.03416 102.069 6.68527 103.391 7.33186L103.389 7.33412Z" fill="#3AC0CA"/>
<path d="M40.6269 22.4408C40.6359 23.0783 40.0978 23.6209 39.4693 23.6096C38.8725 23.5983 38.3751 23.1145 38.3434 22.5131C38.3095 21.8665 38.8092 21.3126 39.449 21.29C40.0752 21.2674 40.6178 21.7964 40.6269 22.4408Z" fill="#262A56"/>
<path d="M64.1641 36.2973C64.189 36.9167 63.6554 37.4842 63.0405 37.491C62.4662 37.4978 61.9282 37.0094 61.883 36.442C61.8332 35.8022 62.3103 35.2483 62.9501 35.2031C63.5854 35.1578 64.137 35.6552 64.1641 36.2973Z" fill="#262A56"/>
<path d="M14.3561 38.0044C13.6779 38.0157 13.2009 37.5319 13.2167 36.8491C13.2303 36.207 13.6711 35.7616 14.3041 35.7481C14.9733 35.7345 15.4662 36.2296 15.4504 36.9034C15.4368 37.5341 14.9824 37.9908 14.3561 38.0021V38.0044Z" fill="#262A56"/>
<path d="M11.4799 35.7481C12.1017 35.7436 12.5787 36.1935 12.6126 36.8152C12.6488 37.4754 12.1514 38.0021 11.4913 38.0021C10.8673 38.0021 10.388 37.5522 10.3586 36.935C10.3247 36.2726 10.8175 35.7504 11.4799 35.7458V35.7481Z" fill="#262A56"/>
<path d="M79.2502 21.29C79.8675 21.3126 80.3626 21.8778 80.3287 22.5176C80.2947 23.1168 79.7996 23.6028 79.2209 23.6073C78.5969 23.6119 78.0814 23.0783 78.0904 22.434C78.0995 21.7897 78.6285 21.2674 79.2502 21.29Z" fill="#262A56"/>
<path d="M76.3451 21.2901C76.9623 21.2765 77.4959 21.8191 77.4914 22.4567C77.4891 23.049 77.0121 23.5667 76.4356 23.6052C75.8138 23.6459 75.2577 23.1327 75.2328 22.4929C75.2079 21.8553 75.7211 21.3014 76.3429 21.2878L76.3451 21.2901Z" fill="#262A56"/>
<path d="M4.4536 22.4906C4.43552 23.1507 3.91101 23.6504 3.27798 23.6074C2.70599 23.569 2.21992 23.0445 2.2154 22.4634C2.20861 21.8327 2.74443 21.2855 3.35937 21.2901C3.9924 21.2968 4.47395 21.8236 4.4536 22.4906Z" fill="#262A56"/>
<path d="M6.14925 21.2923C6.77098 21.2675 7.30905 21.7965 7.31583 22.4386C7.32262 23.0354 6.85915 23.5554 6.27812 23.6052C5.6677 23.6549 5.09119 23.1417 5.05502 22.5154C5.01884 21.8937 5.53431 21.3172 6.14925 21.2923Z" fill="#262A56"/>
<path d="M60.6891 44.4701C60.671 44.7934 60.5195 45.0489 60.1284 45.0783C59.7553 45.1054 59.3891 44.7527 59.3506 44.3458C59.3122 43.9547 59.5971 43.6291 59.9701 43.6404C60.3454 43.6517 60.6777 44.018 60.6913 44.4701H60.6891Z" fill="#262A56"/>
<path d="M34.5473 44.6012C34.5292 44.9494 34.3416 45.1574 33.9504 45.1597C33.4915 45.1597 33.1953 44.8115 33.2202 44.3141C33.2383 43.9727 33.4079 43.7986 33.7492 43.7806C34.2014 43.7557 34.5518 44.1016 34.5496 44.6012H34.5473Z" fill="#262A56"/>
<path d="M130.042 31.2739C130.08 31.0501 130.248 31.0049 130.435 30.9868C130.422 31.2423 130.275 31.3192 130.042 31.2739Z" fill="#3AC0CA"/>
<path d="M130.429 31.0094C130.454 30.7358 130.65 30.7765 130.833 30.7901C130.766 30.9868 130.553 30.9145 130.429 31.0094Z" fill="#3AC0CA"/>
<path d="M112.722 1.07847C113.283 1.00839 113.678 1.3136 114.067 1.65046C116.118 3.41842 118.171 5.18638 120.221 6.95207C120.413 7.11711 120.599 7.28667 120.791 7.45171C122.041 8.52786 123.402 8.72003 124.917 8.03274C126.692 7.22789 128.487 6.466 130.273 5.68828C131.898 4.98064 132.292 5.22707 132.298 6.9566C132.323 13.8905 132.33 20.8244 132.389 27.7584C132.396 28.631 132.124 29.1035 131.349 29.5399C124.804 33.2092 119.31 38.1129 114.664 43.9797C111.942 47.4162 109.641 51.1216 107.699 55.0532C106.197 58.0895 104.949 61.2252 103.957 64.4627C103.885 64.7024 103.862 64.9646 103.593 65.0867C102.223 65.0844 100.853 65.0912 99.4827 65.0754C98.2347 65.0596 97.9702 64.6956 98.2935 63.4657C99.0464 60.6058 100.08 57.8408 101.14 55.0848C101.402 54.4021 101.386 53.9137 100.817 53.3553C99.5347 52.0938 98.3365 50.7463 97.1021 49.4328C95.9106 48.1645 95.1261 46.7402 94.9905 44.9428C94.8571 43.1726 94.9023 41.4182 95.0718 39.6593C97.4073 41.2871 99.6274 43.0483 101.474 45.2413C101.816 45.6459 102.254 45.9805 102.686 46.2948C103.154 46.6317 103.758 46.5028 104.117 46.0348C104.357 45.7228 104.472 45.3249 104.778 45.0536C105.562 45.4379 105.756 45.4447 106.272 44.8569C108.98 41.7506 108.497 38.296 106.12 36.1641C104.988 35.149 103.747 34.2876 102.487 33.4443C100.389 32.0403 98.2189 30.7517 96.2226 29.1962C95.3273 28.4999 94.8842 27.7561 94.8978 26.5601C94.9611 21.1817 94.9226 15.8009 94.9272 10.4224C94.9272 8.83533 94.9475 7.24598 94.9611 5.65889C96.8195 6.45696 98.6869 7.23016 100.529 8.05987C102.103 8.76751 103.473 8.54595 104.696 7.34094C104.771 7.26859 104.872 7.22337 104.963 7.16685C105.922 7.12164 106.618 6.52252 107.325 5.99349C109.283 4.533 110.995 2.79669 112.722 1.083V1.07847Z" fill="#3AC0CA"/>
<path d="M132.025 38.7346C132.282 39.0082 132.19 39.3496 132.192 39.6638C132.196 42.1552 132.169 44.6467 132.199 47.1381C132.206 47.7824 131.97 48.1758 131.491 48.594C126.452 52.9619 122.577 58.2025 119.83 64.2796C119.712 64.5373 119.66 64.8335 119.387 64.994C117.876 65.2156 116.357 65.2517 114.849 65.0709C113.545 64.9149 113.384 64.5803 113.836 63.3594C114.965 60.3051 116.378 57.3863 117.992 54.5558C121.13 49.0598 125.376 44.5042 130.003 40.2652C130.331 39.9645 130.82 39.7836 130.887 39.2501L130.874 39.2636C131.224 39.3043 131.444 39.1506 131.543 38.816L131.525 38.8318C131.692 38.8002 131.86 38.7685 132.029 38.7369L132.025 38.7346Z" fill="#3AC0CA"/>
</g>
<defs>
<clipPath id="clip0_17_1403">
<rect width="134.012" height="66" fill="white" transform="translate(0.987793)"/>
</clipPath>
</defs>
</svg>
