<svg width="57" height="48" viewBox="0 0 57 48" fill="none" xmlns="http://www.w3.org/2000/svg">
<path d="M15.0013 18.1016C14.7474 18.1016 14.474 18.0235 14.2396 17.8672C13.6146 17.4375 13.4389 16.5977 13.8685 15.9727C14.6303 14.8399 21.5053 4.76177 25.7045 2.94536C27.8334 2.02739 29.9232 1.9688 31.9349 2.78911C36.349 4.56645 38.6732 10.0157 38.7709 10.2305C39.0639 10.9336 38.7318 11.7344 38.0287 12.0274C37.3256 12.3204 36.5248 11.9883 36.2318 11.2852C36.2123 11.2461 34.2592 6.6563 30.8998 5.30864C29.5912 4.7813 28.2435 4.82036 26.7982 5.44536C23.849 6.71489 18.1068 14.5665 16.1342 17.4961C15.8607 17.8868 15.431 18.1016 15.0013 18.1016Z" fill="#463218"/>
<path d="M37.3838 46.0117H24.5127C21.3291 46.0117 18.5361 43.8828 17.6768 40.8164L13.5947 16.5977H48.2822L44.2197 40.7969C43.3604 43.8828 40.5674 46.0117 37.3838 46.0117Z" fill="#FCDF22"/>
<path d="M27.6963 40.7969L23.6143 16.5781H13.6143L17.6963 40.7969C18.5361 43.8633 21.3291 45.9922 24.5322 45.9922H34.5322C31.3291 46.0117 28.5361 43.8828 27.6963 40.7969Z" fill="#FCDF22"/>
<path d="M37.384 47.3789H24.5129C20.7239 47.3789 17.384 44.8203 16.3684 41.168C16.3489 41.1289 16.3489 41.0703 16.3293 41.0312L12.2473 16.8125C12.1887 16.4219 12.2864 16.0117 12.5598 15.6992C12.8332 15.3867 13.2043 15.2109 13.595 15.2109H48.2825C48.6926 15.2109 49.0637 15.3867 49.3176 15.6992C49.5715 16.0117 49.6887 16.4219 49.6301 16.8125L45.5481 41.0312C45.5481 41.0703 45.5286 41.1289 45.509 41.168C44.5129 44.8203 41.1731 47.3789 37.384 47.3789ZM19.0247 40.5039C19.7278 42.9453 21.9739 44.6445 24.5129 44.6445H37.384C39.9231 44.6445 42.1692 42.9453 42.8723 40.5039L46.6809 17.9453H15.2356L19.0247 40.5039Z" fill="#463218"/>
<path d="M39.6206 23.2987L37.623 34.171L39.5439 34.524L41.5415 23.6517L39.6206 23.2987Z" fill="white"/>
<path d="M45.5092 3.90227C42.3061 2.39836 36.5053 5.1132 35.0014 8.31633L35.06 8.41398C31.5248 8.5507 26.7201 12.7695 26.8569 16.3046C26.8569 16.3046 26.8764 34.078 51.6811 33.3945C61.9155 10.7968 45.5092 3.90227 45.5092 3.90227Z" fill="#7EB595"/>
<path d="M39.9624 4.213H39.978C39.978 4.19737 39.978 4.213 39.9624 4.213Z" fill="#FE8E46"/>
<path d="M31.7787 12.1055C31.7397 11.0898 32.1108 10.0352 32.7163 9.01953C29.7084 10.3086 26.7397 13.5312 26.8569 16.3242C26.8569 16.3242 26.8764 34.0977 51.6811 33.4141C52.3452 31.9297 52.9116 30.5234 53.3608 29.1758C31.8178 28.2969 31.7787 12.1055 31.7787 12.1055Z" fill="#70B8B2"/>
<path d="M50.2943 34.8008C41.8568 34.8008 35.3724 32.6523 30.9974 28.414C25.7044 23.2578 25.5091 16.9101 25.4896 16.3633C25.4114 14.332 26.5638 12.0469 28.6536 10.1133C30.3138 8.5703 32.2864 7.51561 34.0833 7.18358C36.1927 3.72655 42.2279 0.89452 46.0755 2.67186C46.5833 2.88671 52.3646 5.52343 55.0599 12.3984C57.4036 18.375 56.7005 25.6406 52.9505 33.9414C52.9114 34.0586 52.8333 34.1562 52.7747 34.2539C52.7357 34.3125 52.6771 34.3515 52.638 34.4101C52.4036 34.625 52.1107 34.7617 51.7786 34.7812C51.7591 34.7812 51.7591 34.7812 51.7396 34.7812C51.2318 34.7812 50.763 34.8008 50.2943 34.8008ZM34.3958 9.87889C31.5247 10.4844 28.1263 13.8633 28.2239 16.2461C28.2239 16.2656 28.2239 16.2851 28.2239 16.3047C28.2239 16.3633 28.3216 22.0078 32.931 26.4609C36.5833 29.9765 42.0325 31.8515 49.1224 32.0273L34.3958 9.87889ZM36.6224 8.27733L51.4271 30.5234C54.0247 23.8828 54.3958 18.1211 52.5208 13.375C50.1771 7.39843 45.0404 5.17186 44.9818 5.15233C44.9622 5.15233 44.9427 5.1328 44.9427 5.1328C42.7357 4.11717 38.2825 5.87499 36.6224 8.27733Z" fill="#463218"/>
<path d="M32.2474 29.0585C31.7396 29.0585 31.2318 28.7656 30.9974 28.2578C29.9036 25.875 29.7864 23.5312 30.6653 21.2851C32.5794 16.3828 38.6146 13.8437 38.8685 13.7461C39.5716 13.4531 40.3724 13.7851 40.6458 14.4882C40.9388 15.1914 40.6068 15.9921 39.9036 16.2656C39.845 16.2851 34.6693 18.4726 33.1849 22.2812C32.5794 23.8242 32.6771 25.3867 33.4583 27.1054C33.7708 27.789 33.4778 28.6093 32.7943 28.9218C32.638 29.0195 32.4427 29.0585 32.2474 29.0585Z" fill="#463218"/>
<path d="M41.8371 33.9023C41.5442 33.9023 41.2512 33.8047 40.9973 33.6093C39.5129 32.457 38.7121 30.9336 38.6535 29.2539C38.5559 25.2304 42.716 21.5 43.2043 21.0898C43.7707 20.6015 44.6301 20.6601 45.1379 21.2265C45.6262 21.7929 45.5676 22.6523 45.0012 23.1601C43.9856 24.0586 41.3293 26.8711 41.3879 29.1953C41.4075 30.0547 41.8371 30.7968 42.677 31.4609C43.2629 31.9297 43.3801 32.789 42.9114 33.375C42.6575 33.707 42.2473 33.9023 41.8371 33.9023Z" fill="#463218"/>
<path d="M39.396 16.3828C39.0444 16.3828 38.6929 16.2461 38.4194 15.9727C37.8921 15.4453 37.8921 14.5664 38.4194 14.0391C38.6147 13.8438 43.1655 9.39062 48.3413 9.39062C48.4194 9.39062 48.478 9.39062 48.5562 9.39062C50.9585 9.44922 53.0874 10.4648 54.8452 12.3984C55.353 12.9648 55.314 13.8242 54.7671 14.332C54.2007 14.8398 53.3413 14.8008 52.8335 14.2539C51.564 12.8672 50.1382 12.1836 48.4976 12.1445C46.3882 12.0859 44.2983 13.1406 42.9312 14.0195C41.3882 15.0156 40.3726 15.9922 40.3726 16.0117C40.0991 16.2461 39.7476 16.3828 39.396 16.3828Z" fill="#463218"/>
<path d="M54.5911 25.4258C53.9856 25.4258 53.4387 25.0352 53.2825 24.4102C53.009 23.375 52.4817 22.7109 51.6809 22.3399C50.6653 21.8906 49.1614 21.8906 47.3254 22.3789C45.8411 22.7695 44.7278 23.3164 44.7083 23.3359C44.0247 23.668 43.2044 23.3945 42.8723 22.7109C42.5403 22.0274 42.8137 21.207 43.4973 20.875C44.0637 20.6016 49.1223 18.1992 52.7942 19.8399C54.3372 20.5234 55.4114 21.8516 55.9192 23.668C56.1145 24.3906 55.6848 25.1523 54.9622 25.3477C54.8254 25.4063 54.7083 25.4258 54.5911 25.4258Z" fill="#463218"/>
<path d="M12.1692 9.41016C12.1887 12.2422 13.263 14.8203 15.0208 16.7734C16.7591 14.8008 17.7942 12.2031 17.7747 9.3711C17.7552 6.53906 16.6809 3.96094 14.9231 2.00781C13.2044 3.98047 12.1497 6.57813 12.1692 9.41016Z" fill="#7EB595"/>
<path d="M7.16943 16.0508C9.72803 17.3008 12.5015 17.4765 15.0405 16.7734C14.0444 14.3515 12.1694 12.2617 9.63037 11.0117C7.07178 9.7617 4.29834 9.58592 1.75928 10.289C2.75537 12.7305 4.61084 14.8203 7.16943 16.0508Z" fill="#7EB595"/>
<path d="M12.3842 24.2344C14.2201 22.0664 15.0795 19.4102 15.0209 16.793C12.4232 17.1641 9.92321 18.4531 8.08728 20.6016C6.25134 22.7695 5.39196 25.4258 5.45056 28.043C8.06774 27.6719 10.5482 26.3828 12.3842 24.2344Z" fill="#7EB595"/>
<path d="M17.6381 24.2344C15.8021 22.0664 14.9427 19.4102 15.0013 16.793C17.599 17.1641 20.099 18.4531 21.9349 20.6016C23.7709 22.7695 24.6302 25.4258 24.5716 28.043C21.9545 27.6719 19.474 26.3828 17.6381 24.2344Z" fill="#7EB595"/>
<path d="M22.853 16.0508C20.2944 17.3008 17.521 17.4765 14.9819 16.7734C15.978 14.3515 17.853 12.2617 20.3921 11.0117C22.9507 9.7617 25.7241 9.58592 28.2632 10.289C27.2671 12.7305 25.4116 14.8203 22.853 16.0508Z" fill="#7EB595"/>
<path d="M15.0403 18.1406C14.6497 18.1406 14.2786 17.9844 14.0247 17.6914C11.9739 15.4062 10.8215 12.4766 10.802 9.41016C10.7825 6.34375 11.8762 3.39453 13.9075 1.08984C14.1614 0.796874 14.5325 0.621094 14.9231 0.621094C15.3137 0.621094 15.6848 0.777344 15.9387 1.07031C17.9895 3.35547 19.1223 6.28516 19.1419 9.35156C19.1614 12.418 18.0676 15.3672 16.0364 17.6719C15.802 17.9648 15.4309 18.1406 15.0403 18.1406ZM14.9426 4.27344C14.0247 5.81641 13.5169 7.57422 13.5364 9.39062C13.5559 11.207 14.0637 12.9648 15.0208 14.4883C15.9387 12.9648 16.4465 11.1875 16.427 9.37109C16.4075 7.55469 15.8997 5.79687 14.9426 4.27344Z" fill="#463218"/>
<path d="M12.0327 18.5508C10.1577 18.5508 8.28271 18.1212 6.56396 17.2813C3.81005 15.9337 1.66161 13.6485 0.489737 10.8165C0.333487 10.4454 0.353019 10.0547 0.5288 9.70318C0.704582 9.35162 1.01708 9.09772 1.38817 8.98053C4.33739 8.16022 7.48193 8.43365 10.2358 9.78131C12.9897 11.129 15.1382 13.4141 16.3101 16.2462C16.4663 16.6172 16.4468 17.0079 16.271 17.3594C16.0952 17.711 15.7827 17.9649 15.4116 18.0821C14.2983 18.3946 13.1655 18.5508 12.0327 18.5508ZM7.75536 14.8399C9.37646 15.6407 11.1929 15.9532 12.9702 15.7774C12.0132 14.2735 10.646 13.043 9.00536 12.2422C7.38427 11.4415 5.56786 11.129 3.79052 11.3047C4.76708 12.8087 6.13427 14.0391 7.75536 14.8399Z" fill="#463218"/>
<path d="M5.47009 29.4101C5.15759 29.4101 4.82556 29.2929 4.59118 29.0781C4.29821 28.8242 4.12243 28.4531 4.1029 28.0624C4.04431 24.996 5.099 22.0273 7.07165 19.7031C9.04431 17.3788 11.8177 15.8554 14.8451 15.4257C15.2357 15.3671 15.6263 15.4843 15.9193 15.7382C16.2123 15.9921 16.3881 16.3632 16.4076 16.7538C16.4662 19.8203 15.4115 22.789 13.4388 25.1132C11.4662 27.4374 8.69275 28.9609 5.6654 29.3906C5.58728 29.4101 5.52868 29.4101 5.47009 29.4101ZM13.556 18.5117C11.8568 19.0781 10.3334 20.0937 9.16149 21.4609C7.98962 22.8476 7.2279 24.5078 6.95446 26.2851C8.65368 25.7187 10.1771 24.7031 11.349 23.3359C12.5209 21.9492 13.2826 20.289 13.556 18.5117Z" fill="#463218"/>
<path d="M24.5521 29.4101C24.4935 29.4101 24.4154 29.4101 24.3568 29.3906C21.3295 28.9609 18.556 27.4374 16.5834 25.1132C14.6107 22.789 13.556 19.8007 13.6146 16.7538C13.6146 16.3632 13.7904 15.9921 14.1029 15.7382C14.3959 15.4843 14.7865 15.3671 15.1771 15.4257C18.2045 15.8554 20.9779 17.3788 22.9506 19.7031C24.9232 22.0273 25.9779 25.0156 25.9193 28.0624C25.9193 28.4531 25.7435 28.8242 25.431 29.0781C25.1967 29.2929 24.8842 29.4101 24.5521 29.4101ZM16.4662 18.5117C16.7396 20.289 17.5013 21.9492 18.6732 23.3359C19.8451 24.7226 21.3685 25.7382 23.0677 26.2851C22.7943 24.5078 22.0326 22.8476 20.8607 21.4609C19.6888 20.0937 18.1654 19.0781 16.4662 18.5117Z" fill="#463218"/>
<path d="M17.9702 18.5508C16.8374 18.5508 15.7046 18.3946 14.6108 18.0821C14.2397 17.9844 13.9272 17.711 13.7514 17.3594C13.5757 17.0079 13.5757 16.5977 13.7124 16.2462C14.8842 13.4141 17.0327 11.1094 19.7866 9.78131C22.5405 8.43365 25.685 8.16022 28.6342 8.98053C29.0053 9.07818 29.3178 9.35162 29.4936 9.70318C29.6694 10.0547 29.6694 10.4649 29.5327 10.8165C28.3608 13.6485 26.2124 15.9532 23.4585 17.2813C21.7397 18.1212 19.8647 18.5508 17.9702 18.5508ZM17.0327 15.7774C18.81 15.9532 20.6264 15.6212 22.2475 14.8399C23.8686 14.0391 25.2358 12.8087 26.2124 11.3047C24.435 11.129 22.6186 11.461 20.9975 12.2422C19.3569 13.043 17.9897 14.254 17.0327 15.7774Z" fill="#463218"/>
<path d="M15.0015 19.5273C16.544 19.5273 17.7944 18.2769 17.7944 16.7344C17.7944 15.1919 16.544 13.9414 15.0015 13.9414C13.4589 13.9414 12.2085 15.1919 12.2085 16.7344C12.2085 18.2769 13.4589 19.5273 15.0015 19.5273Z" fill="#70B8B2"/>
<path d="M15.0015 20.8945C12.7163 20.8945 10.8413 19.0195 10.8413 16.7344C10.8413 14.4492 12.7163 12.5742 15.0015 12.5742C17.2866 12.5742 19.1616 14.4492 19.1616 16.7344C19.1616 19.0195 17.2866 20.8945 15.0015 20.8945ZM15.0015 15.3086C14.2202 15.3086 13.5757 15.9531 13.5757 16.7344C13.5757 17.5156 14.2202 18.1602 15.0015 18.1602C15.7827 18.1602 16.4272 17.5156 16.4272 16.7344C16.4272 15.9531 15.7827 15.3086 15.0015 15.3086Z" fill="#463218"/>
</svg>
