<svg width="71" height="67" viewBox="0 0 71 67" fill="none" xmlns="http://www.w3.org/2000/svg">
<path d="M1.59473 11.2969H33.665L49.8955 27.332V65.5742H1.59473V11.2969Z" fill="#7EB595"/>
<path d="M33.665 11.2969H1.59473V17.5859H27.6494L43.8799 33.6211V65.5742H49.8955V27.332L33.665 11.2969Z" fill="#7EB595"/>
<path d="M49.8955 66.9414H1.59473C0.833008 66.9414 0.227539 66.3359 0.227539 65.5742V11.2969C0.227539 10.5352 0.833008 9.92969 1.59473 9.92969H33.665C34.0166 9.92969 34.3682 10.0664 34.6221 10.3203L50.833 26.3555C51.0869 26.6094 51.2432 26.9609 51.2432 27.332V65.5742C51.2627 66.3359 50.6377 66.9414 49.8955 66.9414ZM2.96191 64.207H48.5283V27.8984L33.1182 12.6641H2.96191V64.207Z" fill="#463218"/>
<path d="M6.61451 38.504C10.2083 36.7072 14.6418 36.8243 18.2356 39.2071C21.8293 41.59 23.6848 45.6134 23.4309 49.6173C19.8372 51.4142 15.4036 51.297 11.8098 48.9142C8.2356 46.5509 6.38013 42.5275 6.61451 38.504Z" fill="#FCDF22"/>
<path d="M23.4307 49.6173C19.837 51.4142 15.4034 51.297 11.8096 48.9142C8.21587 46.5314 6.36041 42.5079 6.61431 38.504" fill="#FCDF22"/>
<path d="M44.8568 32.7228C40.2864 30.4376 34.6614 30.5939 30.0911 33.6017C25.5208 36.6095 23.1771 41.7267 23.4896 46.8439C28.0599 49.129 33.6849 48.9728 38.2552 45.9649C42.806 42.9376 45.1497 37.8204 44.8568 32.7228Z" fill="#FCDF22"/>
<path d="M44.8564 32.7227C44.8564 32.7227 34.6611 30.5938 30.0908 33.6016C25.5205 36.6094 23.4893 46.8242 23.4893 46.8242L44.8564 32.7227Z" fill="#FCDF22"/>
<path d="M30.0909 49.754C27.63 49.754 25.1495 49.1876 22.8644 48.0548C22.4347 47.8399 22.1417 47.3907 22.1026 46.9024C21.7706 41.1602 24.5245 35.6133 29.3292 32.4493C34.1144 29.2852 40.3058 28.9141 45.4425 31.4727C45.8722 31.6876 46.1651 32.1368 46.2042 32.6251C46.5362 38.3673 43.7823 43.9141 38.9776 47.0782C36.3214 48.8555 33.2159 49.754 30.0909 49.754ZM24.837 45.9454C28.9581 47.7032 33.7433 47.293 37.4933 44.8126C41.2433 42.3321 43.5089 38.0938 43.5089 33.6016C39.3878 31.8438 34.6026 32.254 30.8526 34.7344C27.1026 37.2149 24.837 41.4532 24.837 45.9454Z" fill="#463218"/>
<path d="M18.2355 52.2149C15.7159 52.2149 13.2159 51.4922 11.0675 50.0664C7.20031 47.5079 4.97374 43.0547 5.24718 38.4258C5.26671 37.9375 5.55968 37.5078 6.0089 37.2735C10.1495 35.2032 15.13 35.4961 18.9972 38.0547C22.8644 40.6133 25.0909 45.0664 24.8175 49.6954C24.798 50.1836 24.505 50.6133 24.0558 50.8477C22.2198 51.7657 20.2277 52.2149 18.2355 52.2149ZM7.96202 39.4024C8.02062 42.7618 9.73937 45.9258 12.5714 47.7813C15.4034 49.6368 18.9776 49.9883 22.0831 48.7188C22.0245 45.3594 20.3058 42.1954 17.4737 40.3399C14.6612 38.4844 11.087 38.1328 7.96202 39.4024Z" fill="#463218"/>
<path d="M35.7346 38.7897L29.7979 42.7714L31.1904 44.8476L37.1271 40.8659L35.7346 38.7897Z" fill="white"/>
<path d="M39.7679 36.0861L37.5132 37.5983L38.9057 39.6745L41.1604 38.1623L39.7679 36.0861Z" fill="white"/>
<path d="M51.1938 8.36684C53.0549 6.50577 53.5557 3.9892 52.3124 2.74595C51.0692 1.50269 48.5526 2.00353 46.6915 3.8646C44.8305 5.72568 44.3296 8.24224 45.5729 9.48549C46.8162 10.7288 49.3327 10.2279 51.1938 8.36684Z" fill="#E56823"/>
<path d="M63.5129 16.1552C66.0427 15.4287 67.7002 13.4698 67.2149 11.7798C66.7296 10.0898 64.2854 9.3086 61.7555 10.035C59.2257 10.7615 57.5682 12.7204 58.0535 14.4104C58.5388 16.1004 60.983 16.8816 63.5129 16.1552Z" fill="#E56823"/>
<path d="M68.9326 34.0378C69.8201 32.5199 68.6977 30.2124 66.4255 28.8837C64.1533 27.5551 61.5918 27.7086 60.7042 29.2265C59.8167 30.7444 60.9391 33.0519 63.2113 34.3805C65.4835 35.7092 68.045 35.5557 68.9326 34.0378Z" fill="#E56823"/>
</svg>
