<svg width="61" height="62" viewBox="0 0 61 62" fill="none" xmlns="http://www.w3.org/2000/svg">
<path d="M47.0503 60.2773C47.2651 59.4961 47.3823 58.6953 47.3823 57.8555C47.3823 52.9336 43.3784 48.9297 38.4565 48.9297C38.437 48.9297 38.437 48.9297 38.4175 48.9297C36.3667 45.1406 32.3628 42.5625 27.7534 42.5625C21.6792 42.5625 16.6597 47.0352 15.7808 52.8555C15.5073 52.8164 15.2144 52.7969 14.9214 52.7969C11.0542 52.7969 7.9292 55.9219 7.9292 59.7891C7.9292 59.9453 7.9292 60.1211 7.94873 60.2773H47.0503Z" fill="#FE8E46"/>
<path d="M25.9956 52.7969C26.2886 52.7969 26.562 52.8164 26.855 52.8555C27.4409 48.9297 29.9019 45.6289 33.3003 43.8906C31.6401 43.0312 29.7651 42.5625 27.7729 42.5625C21.6987 42.5625 16.6792 47.0352 15.8003 52.8555C15.5269 52.8164 15.2339 52.7969 14.9409 52.7969C11.0737 52.7969 7.94873 55.9219 7.94873 59.7891C7.94873 59.9453 7.94873 60.1211 7.96826 60.2773H19.0034C18.9839 60.1211 18.9839 59.9453 18.9839 59.7891C19.0034 55.9219 22.1284 52.7969 25.9956 52.7969Z" fill="#E56823"/>
<path d="M47.0503 61.6445H7.98779C7.26513 61.6445 6.6792 61.0977 6.6206 60.375C6.60107 60.1602 6.60107 59.9648 6.60107 59.7891C6.60107 55.2773 10.2144 51.5859 14.687 51.4492C15.3511 48.7734 16.8354 46.332 18.9448 44.4961C21.3862 42.3672 24.5308 41.1953 27.7729 41.1953C32.4604 41.1953 36.7964 43.6172 39.2378 47.582C44.5503 47.9727 48.769 52.4258 48.769 57.8555C48.769 58.793 48.6323 59.75 48.3784 60.6484C48.2026 61.2344 47.6753 61.6445 47.0503 61.6445ZM9.39404 58.9102H45.937C45.9956 58.5586 46.0151 58.207 46.0151 57.8555C46.0151 53.6953 42.6362 50.2969 38.4761 50.2969C38.4565 50.2969 38.437 50.2969 38.4175 50.2969C37.9097 50.2969 37.4604 50.0234 37.2065 49.5742C35.3315 46.0977 31.6987 43.9297 27.7534 43.9297C22.48 43.9297 17.9097 47.8555 17.1284 53.0703C17.0112 53.793 16.3472 54.3203 15.605 54.2227C15.3706 54.2031 15.1362 54.1836 14.9214 54.1836C12.1479 54.1641 9.82373 56.2148 9.39404 58.9102Z" fill="#463218"/>
<path d="M51.5817 25.5508C54.2184 22.9727 56.3278 16.9766 56.4645 12.0352C56.6598 4.96491 59.277 1.97663 59.277 1.97663C59.277 1.97663 43.3004 -0.0350929 33.652 7.34772C33.6324 7.36725 33.5934 7.38678 33.5738 7.40631C33.4762 7.48444 33.3981 7.54303 33.3004 7.62116C32.9098 7.93366 32.5192 8.28522 32.1481 8.65632C27.1676 13.754 27.2457 21.918 32.3238 26.8985C37.402 31.879 45.5856 31.8008 50.566 26.7227C50.9371 26.3516 51.2692 25.961 51.5817 25.5508Z" fill="#7EB595"/>
<path d="M51.582 25.5508C54.2187 22.9727 56.3281 16.9766 56.4648 12.0352C56.6602 4.96484 59.2773 1.97656 59.2773 1.97656C59.2773 1.97656 57.3828 1.74219 54.5117 1.72266C53.7109 3.14844 52.5195 6.03906 52.3828 10.7266C52.2461 15.668 50.1367 21.6641 47.5 24.2227C47.1875 24.6133 46.8555 25.0039 46.5039 25.375C43.4961 28.4414 39.3555 29.6914 35.4102 29.1055C40.3125 31.6641 46.5039 30.8437 50.5859 26.6836C50.9375 26.3516 51.2695 25.9609 51.582 25.5508Z" fill="#70B8B2"/>
<path d="M41.367 31.957C37.7537 31.957 34.1599 30.6094 31.3865 27.8945C28.6717 25.2188 27.1482 21.6641 27.1092 17.8359C27.0701 14.0273 28.5154 10.4336 31.1912 7.69922C31.5623 7.32812 31.9529 6.95703 32.3826 6.625C32.4021 6.60547 32.4217 6.58594 32.4607 6.56641C32.5389 6.50781 32.5975 6.44922 32.6756 6.39063L32.7732 6.3125C32.7928 6.29297 32.8123 6.27344 32.8514 6.25391C37.0506 3.03125 42.8318 1.11719 49.9998 0.53125C55.2928 0.101563 59.3162 0.609375 59.492 0.628907C59.9998 0.6875 60.41 1.01953 60.6053 1.50781C60.781 1.97656 60.6834 2.52344 60.3514 2.89453C60.3318 2.91406 58.0467 5.70703 57.8709 12.0938C57.7342 17.5039 55.4881 23.6562 52.6365 26.4883C52.3045 26.918 51.9529 27.3281 51.6014 27.6797C48.7693 30.5117 45.0584 31.957 41.367 31.957ZM34.199 8.63672C34.1795 8.65625 34.16 8.67578 34.1404 8.69531C33.7693 9.00781 33.4373 9.30078 33.1248 9.61328C30.9764 11.8203 29.8045 14.7305 29.824 17.8164C29.8435 20.9023 31.0935 23.793 33.281 25.9414C35.5271 28.1289 38.4373 29.2422 41.3475 29.2422C44.3357 29.2422 47.3435 28.0898 49.5896 25.7852C49.9021 25.4727 50.1951 25.1211 50.4881 24.75C50.5271 24.6914 50.5662 24.6523 50.6248 24.5938C50.6443 24.5742 50.6443 24.5742 50.6639 24.5547C52.9881 22.2695 54.9803 16.6641 55.0974 12.0156C55.2146 7.81641 56.1521 4.92578 56.992 3.16797C52.4217 2.93359 41.5232 3.01172 34.4724 8.42187L34.3162 8.53906C34.2771 8.57812 34.2381 8.59766 34.199 8.63672Z" fill="#463218"/>
<path d="M32.3243 28.2657C32.1485 28.2657 31.9532 28.2266 31.7774 28.1485C31.0938 27.836 30.7813 27.0352 31.0743 26.3516C35.4297 16.4883 48.711 8.05083 49.2774 7.69927C49.9219 7.28911 50.7618 7.48443 51.1524 8.12896C51.5625 8.77349 51.3672 9.61333 50.7227 10.0235C50.6836 10.043 47.3633 12.1329 43.5938 15.3555C38.6719 19.5547 35.2149 23.7344 33.5547 27.4649C33.3594 27.9727 32.8516 28.2657 32.3243 28.2657Z" fill="#463218"/>
<path d="M36.1132 22.0741C36.0741 22.0741 36.0351 22.0741 35.996 22.0741C35.2343 22.0155 34.6874 21.3515 34.746 20.5897L35.5468 11.4882C35.6054 10.7265 36.2694 10.1796 37.0311 10.2382C37.7929 10.2968 38.3397 10.9608 38.2811 11.7226L37.4804 20.8241C37.4022 21.5272 36.8163 22.0741 36.1132 22.0741Z" fill="#463218"/>
<path d="M48.8865 17.4453C48.7888 17.4453 48.6912 17.4258 48.5935 17.4062L42.1287 16.0195C41.3865 15.8633 40.9177 15.1406 41.074 14.3984C41.2302 13.6562 41.9529 13.1875 42.6951 13.3437L49.1599 14.7305C49.9021 14.8867 50.3708 15.6094 50.2146 16.3516C50.0974 17.0156 49.531 17.4453 48.8865 17.4453Z" fill="#463218"/>
<path d="M46.6016 26.6641L45.293 25.2187C45.4688 25.0625 45.6445 24.8867 45.8203 24.7109C46.1328 24.3789 46.4453 24.0273 46.7578 23.6367L48.3008 24.8281C47.9492 25.2773 47.5977 25.6875 47.2266 26.0781C47.0117 26.293 46.8164 26.4883 46.6016 26.6641Z" fill="white"/>
<path d="M49.2383 23.7539L47.6758 22.582C48.2812 21.7617 48.8672 20.7266 49.3945 19.5352L51.1914 20.3164C50.6055 21.6445 49.9414 22.7969 49.2383 23.7539Z" fill="white"/>
<path d="M7.90967 32.4648C7.89014 32.4648 7.89014 32.4648 7.90967 32.4648C5.99561 30.6094 4.47217 26.2539 4.37451 22.6601C4.23779 17.543 2.32373 15.3555 2.32373 15.3555C2.32373 15.3555 13.9253 13.8906 20.9175 19.2422C20.937 19.2617 20.9565 19.2812 20.9761 19.2812C21.0347 19.3398 21.1128 19.3789 21.1714 19.4375C21.4644 19.6719 21.7378 19.9258 21.9917 20.1797C25.605 23.8711 25.5464 29.789 21.855 33.4219C18.1636 37.0351 12.2456 36.9765 8.61279 33.2851C8.35889 33.0312 8.12451 32.7578 7.90967 32.4648Z" fill="#7EB595"/>
<path d="M7.90967 32.4648C7.89014 32.4648 7.89014 32.4648 7.90967 32.4648C5.99561 30.6094 4.47217 26.2539 4.37451 22.6602C4.23779 17.543 2.32373 15.3555 2.32373 15.3555C2.32373 15.3555 3.69092 15.1797 5.78076 15.1797C6.34717 16.2148 7.22608 18.3047 7.32373 21.7031C7.42139 25.2773 8.94482 29.6328 10.8589 31.4883C11.0737 31.7812 11.3276 32.0547 11.5815 32.3281C13.7495 34.5547 16.7769 35.4531 19.6284 35.043C16.0737 36.8984 11.5815 36.293 8.63233 33.2852C8.35889 33.0313 8.12451 32.7578 7.90967 32.4648Z" fill="#70B8B2"/>
<path d="M15.3122 37.4845C12.5192 37.4845 9.74576 36.4102 7.65592 34.2618C7.38248 33.9884 7.12858 33.6954 6.87467 33.3829C4.74576 31.254 3.08561 26.7032 2.98795 22.7188C2.87076 18.2462 1.28873 16.293 1.2692 16.2735C0.93717 15.9024 0.839514 15.3751 1.01529 14.8868C1.19108 14.418 1.62076 14.086 2.12858 14.0274C2.61686 13.9688 14.3747 12.5626 21.738 18.1876C21.7575 18.1876 21.777 18.2071 21.7965 18.2266L21.8161 18.2462L21.8747 18.2852C21.9333 18.3243 21.9919 18.3634 22.0309 18.422C22.0505 18.4415 22.07 18.461 22.0895 18.4805C22.402 18.7344 22.7145 19.0079 22.9684 19.2813C27.109 23.5001 27.0309 30.3165 22.8122 34.4571C20.7419 36.4688 18.027 37.4845 15.3122 37.4845ZM8.8278 31.4688C8.90592 31.5274 8.94498 31.586 8.98405 31.6446C9.17936 31.918 9.3942 32.1524 9.60905 32.3673C12.695 35.5118 17.7536 35.5704 20.9176 32.4845C24.0622 29.3985 24.1208 24.3399 21.0348 21.1759C20.82 20.961 20.5856 20.7462 20.3317 20.5313C20.3122 20.5118 20.2926 20.5118 20.2926 20.4923C20.2731 20.4727 20.2536 20.4532 20.2145 20.4337L20.1169 20.3555L20.0973 20.336C15.3317 16.6837 8.08561 16.4493 4.56998 16.586C5.11686 17.9141 5.66373 19.8868 5.74186 22.6407C5.81998 25.9024 7.2067 29.8477 8.8278 31.4688Z" fill="#463218"/>
<path d="M21.855 34.8086C21.3277 34.8086 20.8199 34.4961 20.605 33.9883C17.7339 27.4844 8.398 21.5665 8.30034 21.5079C7.65581 21.0977 7.4605 20.2579 7.87066 19.6133C8.28081 18.9688 9.12066 18.7735 9.76519 19.1836C9.86284 19.2422 12.3238 20.7852 15.1753 23.2266C19.0816 26.5469 21.7378 29.7891 23.105 32.8751C23.4175 33.5586 23.105 34.379 22.4019 34.6719C22.2261 34.7696 22.0503 34.8086 21.855 34.8086Z" fill="#463218"/>
<path d="M19.121 30.3164C18.4179 30.3164 17.8319 29.7891 17.7538 29.0664L17.1679 22.4649C17.1093 21.7032 17.6562 21.0586 18.4179 20.9805C19.1796 20.9219 19.8241 21.4688 19.9022 22.2305L20.4882 28.8321C20.5468 29.5938 19.9999 30.2383 19.2382 30.3164C19.1991 30.3164 19.1601 30.3164 19.121 30.3164Z" fill="#463218"/>
<path d="M9.86303 26.9571C9.23803 26.9571 8.67162 26.5275 8.53491 25.8829C8.37866 25.1407 8.8474 24.4181 9.58959 24.2618L14.2771 23.2657C15.0193 23.1095 15.7419 23.5782 15.8982 24.3204C16.0544 25.0626 15.5857 25.7853 14.8435 25.9415L10.156 26.9376C10.0388 26.9571 9.94116 26.9571 9.86303 26.9571Z" fill="#463218"/>
<path d="M27.9099 43.9297C27.3044 43.9297 26.7576 43.5195 26.5818 42.9141C25.3904 38.3828 21.7771 34.418 21.738 34.3789C21.2302 33.832 21.2693 32.9531 21.8162 32.4453C22.363 31.9375 23.2419 31.9766 23.7498 32.5234C23.9255 32.6992 27.8513 37.0156 29.2185 42.2109C29.4138 42.9336 28.9646 43.6953 28.2419 43.8711C28.1248 43.9102 28.0076 43.9297 27.9099 43.9297Z" fill="#463218"/>
<path d="M29.1402 44.0078C28.4956 44.0078 27.9292 43.5586 27.7925 42.914C25.4683 31.2343 31.191 26.0976 31.4253 25.8828C31.9917 25.3945 32.8511 25.4531 33.3589 26.0195C33.8472 26.5859 33.7886 27.4453 33.2417 27.9336C33.0269 28.1289 28.4956 32.3672 30.4878 42.3672C30.6441 43.1093 30.1558 43.832 29.4136 43.9687C29.316 43.9882 29.2183 44.0078 29.1402 44.0078Z" fill="#463218"/>
</svg>
