<svg width="1440" height="12" viewBox="0 0 1440 12" fill="none" xmlns="http://www.w3.org/2000/svg">
<path d="M0.0824192 6.80173C0.991711 6.20884 2.09668 6.4788 6.43897 8.35381C8.62249 9.29683 10.7428 10.1034 11.1508 10.1464C11.6844 10.2027 12.1257 10.1036 12.724 9.79299C13.1813 9.55558 15.6599 7.55883 18.2322 5.35574C20.8043 3.15266 23.091 1.2771 23.3136 1.18791C23.8742 0.963191 25.1651 0.964662 25.7627 1.19067C26.0363 1.2942 28.266 3.09658 30.7175 5.19576C36.1463 9.84466 36.0642 9.78122 36.9824 10.0275C38.0382 10.3103 38.7738 10.0867 43.4215 8.06988C47.9881 6.08821 48.5999 5.96812 49.5102 6.874L50.0514 7.41263M50.0514 7.52026C49.9952 7.28929 48.7387 7.33926 48.5044 7.23315C48.0589 7.03104 46.8311 7.49593 41.0874 10.0418C39.1447 10.903 38.7213 11.0247 37.669 11.0244C36.7595 11.024 36.2987 10.9243 35.7706 10.6141C35.3872 10.3888 32.9945 8.41854 30.4538 6.23587C27.9131 4.05302 25.548 2.14804 25.198 2.00257C24.848 1.85693 24.4966 1.74916 24.4171 1.76296C24.3377 1.77675 24.0926 1.82291 23.8728 1.86575C23.5405 1.93012 16.7808 7.56232 14.083 10.0225C13.6617 10.4067 12.9965 10.8096 12.6048 10.9179C11.1264 11.3263 10.5937 11.1928 6.34916 9.34961C4.11335 8.37882 2.06564 7.49612 1.79882 7.38799C1.16466 7.13108 0.283819 7.47975 0 8.09967" stroke="#7EB595"/>
<path d="M95.0513 6.80173C95.9606 6.20884 97.0655 6.4788 101.408 8.35381C103.591 9.29683 105.712 10.1034 106.12 10.1464C106.653 10.2027 107.095 10.1036 107.693 9.79299C108.15 9.55558 110.629 7.55883 113.201 5.35574C115.773 3.15266 118.06 1.2771 118.282 1.18791C118.843 0.963191 120.134 0.964662 120.732 1.19067C121.005 1.2942 123.235 3.09658 125.686 5.19576C131.115 9.84466 131.033 9.78122 131.951 10.0275C133.007 10.3103 133.743 10.0867 138.39 8.06988C142.957 6.08821 143.569 5.96812 144.479 6.874L145.02 7.41263M145.02 7.52026C144.964 7.28929 143.708 7.33926 143.473 7.23315C143.028 7.03104 141.8 7.49593 136.056 10.0418C134.114 10.903 133.69 11.0247 132.638 11.0244C131.728 11.024 131.268 10.9243 130.739 10.6141C130.356 10.3888 127.963 8.41854 125.423 6.23587C122.882 4.05302 120.517 2.14804 120.167 2.00257C119.817 1.85693 119.465 1.74916 119.386 1.76296C119.307 1.77675 119.061 1.82291 118.842 1.86575C118.509 1.93012 111.75 7.56232 109.052 10.0225C108.631 10.4067 107.965 10.8096 107.574 10.9179C106.095 11.3263 105.563 11.1928 101.318 9.34961C99.0822 8.37882 97.0345 7.49612 96.7677 7.38799" stroke="#7EB595"/>
<path d="M143.051 6.80173C143.961 6.20884 145.066 6.4788 149.408 8.35381C151.591 9.29683 153.712 10.1034 154.12 10.1464C154.653 10.2027 155.095 10.1036 155.693 9.79299C156.15 9.55558 158.629 7.55883 161.201 5.35574C163.773 3.15266 166.06 1.2771 166.282 1.18791C166.843 0.963191 168.134 0.964662 168.732 1.19067C169.005 1.2942 171.235 3.09658 173.686 5.19576C179.115 9.84466 179.033 9.78122 179.951 10.0275C181.007 10.3103 181.743 10.0867 186.39 8.06988C190.957 6.08821 191.569 5.96812 192.479 6.874L193.02 7.41263M193.02 7.52026C192.964 7.28929 191.708 7.33926 191.473 7.23315C191.028 7.03104 189.8 7.49593 184.056 10.0418C182.114 10.903 181.69 11.0247 180.638 11.0244C179.728 11.024 179.268 10.9243 178.739 10.6141C178.356 10.3888 175.963 8.41854 173.423 6.23587C170.882 4.05302 168.517 2.14804 168.167 2.00257C167.817 1.85693 167.465 1.74916 167.386 1.76296C167.307 1.77675 167.061 1.82291 166.842 1.86575C166.509 1.93012 159.75 7.56232 157.052 10.0225C156.631 10.4067 155.965 10.8096 155.574 10.9179C154.095 11.3263 153.563 11.1928 149.318 9.34961C147.082 8.37882 145.034 7.49612 144.768 7.38799" stroke="#7EB595"/>
<path d="M191.051 6.80173C191.961 6.20884 193.066 6.4788 197.408 8.35381C199.591 9.29683 201.712 10.1034 202.12 10.1464C202.653 10.2027 203.095 10.1036 203.693 9.79299C204.15 9.55558 206.629 7.55883 209.201 5.35574C211.773 3.15266 214.06 1.2771 214.282 1.18791C214.843 0.963191 216.134 0.964662 216.732 1.19067C217.005 1.2942 219.235 3.09658 221.686 5.19576C227.115 9.84466 227.033 9.78122 227.951 10.0275C229.007 10.3103 229.743 10.0867 234.39 8.06988C238.957 6.08821 239.569 5.96812 240.479 6.874L241.02 7.41263M241.02 7.52026C240.964 7.28929 239.708 7.33926 239.473 7.23315C239.028 7.03104 237.8 7.49593 232.056 10.0418C230.114 10.903 229.69 11.0247 228.638 11.0244C227.728 11.024 227.268 10.9243 226.739 10.6141C226.356 10.3888 223.963 8.41854 221.423 6.23587C218.882 4.05302 216.517 2.14804 216.167 2.00257C215.817 1.85693 215.465 1.74916 215.386 1.76296C215.307 1.77675 215.061 1.82291 214.842 1.86575C214.509 1.93012 207.75 7.56232 205.052 10.0225C204.631 10.4067 203.965 10.8096 203.574 10.9179C202.095 11.3263 201.563 11.1928 197.318 9.34961C195.082 8.37882 193.034 7.49612 192.768 7.38799" stroke="#7EB595"/>
<path d="M239.051 6.80173C239.961 6.20884 241.066 6.4788 245.408 8.35381C247.591 9.29683 249.712 10.1034 250.12 10.1464C250.653 10.2027 251.095 10.1036 251.693 9.79299C252.15 9.55558 254.629 7.55883 257.201 5.35574C259.773 3.15266 262.06 1.2771 262.282 1.18791C262.843 0.963191 264.134 0.964662 264.732 1.19067C265.005 1.2942 267.235 3.09658 269.686 5.19576C275.115 9.84466 275.033 9.78122 275.951 10.0275C277.007 10.3103 277.743 10.0867 282.39 8.06988C286.957 6.08821 287.569 5.96812 288.479 6.874L289.02 7.41263M289.02 7.52026C288.964 7.28929 287.708 7.33926 287.473 7.23315C287.028 7.03104 285.8 7.49593 280.056 10.0418C278.114 10.903 277.69 11.0247 276.638 11.0244C275.728 11.024 275.268 10.9243 274.739 10.6141C274.356 10.3888 271.963 8.41854 269.423 6.23587C266.882 4.05302 264.517 2.14804 264.167 2.00257C263.817 1.85693 263.465 1.74916 263.386 1.76296C263.307 1.77675 263.061 1.82291 262.842 1.86575C262.509 1.93012 255.75 7.56232 253.052 10.0225C252.631 10.4067 251.965 10.8096 251.574 10.9179C250.095 11.3263 249.563 11.1928 245.318 9.34961C243.082 8.37882 241.034 7.49612 240.768 7.38799" stroke="#7EB595"/>
<path d="M287.051 6.80173C287.961 6.20884 289.066 6.4788 293.408 8.35381C295.591 9.29683 297.712 10.1034 298.12 10.1464C298.653 10.2027 299.095 10.1036 299.693 9.79299C300.15 9.55558 302.629 7.55883 305.201 5.35574C307.773 3.15266 310.06 1.2771 310.282 1.18791C310.843 0.963191 312.134 0.964662 312.732 1.19067C313.005 1.2942 315.235 3.09658 317.686 5.19576C323.115 9.84466 323.033 9.78122 323.951 10.0275C325.007 10.3103 325.743 10.0867 330.39 8.06988C334.957 6.08821 335.569 5.96812 336.479 6.874L337.02 7.41263M337.02 7.52026C336.964 7.28929 335.708 7.33926 335.473 7.23315C335.028 7.03104 333.8 7.49593 328.056 10.0418C326.114 10.903 325.69 11.0247 324.638 11.0244C323.728 11.024 323.268 10.9243 322.739 10.6141C322.356 10.3888 319.963 8.41854 317.423 6.23587C314.882 4.05302 312.517 2.14804 312.167 2.00257C311.817 1.85693 311.465 1.74916 311.386 1.76296C311.307 1.77675 311.061 1.82291 310.842 1.86575C310.509 1.93012 303.75 7.56232 301.052 10.0225C300.631 10.4067 299.965 10.8096 299.574 10.9179C298.095 11.3263 297.563 11.1928 293.318 9.34961C291.082 8.37882 289.034 7.49612 288.768 7.38799" stroke="#7EB595"/>
<path d="M335.051 6.80173C335.961 6.20884 337.066 6.4788 341.408 8.35381C343.591 9.29683 345.712 10.1034 346.12 10.1464C346.653 10.2027 347.095 10.1036 347.693 9.79299C348.15 9.55558 350.629 7.55883 353.201 5.35574C355.773 3.15266 358.06 1.2771 358.282 1.18791C358.843 0.963191 360.134 0.964662 360.732 1.19067C361.005 1.2942 363.235 3.09658 365.686 5.19576C371.115 9.84466 371.033 9.78122 371.951 10.0275C373.007 10.3103 373.743 10.0867 378.39 8.06988C382.957 6.08821 383.569 5.96812 384.479 6.874L385.02 7.41263M385.02 7.52026C384.964 7.28929 383.708 7.33926 383.473 7.23315C383.028 7.03104 381.8 7.49593 376.056 10.0418C374.114 10.903 373.69 11.0247 372.638 11.0244C371.728 11.024 371.268 10.9243 370.739 10.6141C370.356 10.3888 367.963 8.41854 365.423 6.23587C362.882 4.05302 360.517 2.14804 360.167 2.00257C359.817 1.85693 359.465 1.74916 359.386 1.76296C359.307 1.77675 359.061 1.82291 358.842 1.86575C358.509 1.93012 351.75 7.56232 349.052 10.0225C348.631 10.4067 347.965 10.8096 347.574 10.9179C346.095 11.3263 345.563 11.1928 341.318 9.34961C339.082 8.37882 337.034 7.49612 336.768 7.38799" stroke="#7EB595"/>
<path d="M383.051 6.80173C383.961 6.20884 385.066 6.4788 389.408 8.35381C391.591 9.29683 393.712 10.1034 394.12 10.1464C394.653 10.2027 395.095 10.1036 395.693 9.79299C396.15 9.55558 398.629 7.55883 401.201 5.35574C403.773 3.15266 406.06 1.2771 406.282 1.18791C406.843 0.963191 408.134 0.964662 408.732 1.19067C409.005 1.2942 411.235 3.09658 413.686 5.19576C419.115 9.84466 419.033 9.78122 419.951 10.0275C421.007 10.3103 421.743 10.0867 426.39 8.06988C430.957 6.08821 431.569 5.96812 432.479 6.874L433.02 7.41263M433.02 7.52026C432.964 7.28929 431.708 7.33926 431.473 7.23315C431.028 7.03104 429.8 7.49593 424.056 10.0418C422.114 10.903 421.69 11.0247 420.638 11.0244C419.728 11.024 419.268 10.9243 418.739 10.6141C418.356 10.3888 415.963 8.41854 413.423 6.23587C410.882 4.05302 408.517 2.14804 408.167 2.00257C407.817 1.85693 407.465 1.74916 407.386 1.76296C407.307 1.77675 407.061 1.82291 406.842 1.86575C406.509 1.93012 399.75 7.56232 397.052 10.0225C396.631 10.4067 395.965 10.8096 395.574 10.9179C394.095 11.3263 393.563 11.1928 389.318 9.34961C387.082 8.37882 385.034 7.49612 384.768 7.38799" stroke="#7EB595"/>
<path d="M431.051 6.80173C431.961 6.20884 433.066 6.4788 437.408 8.35381C439.591 9.29683 441.712 10.1034 442.12 10.1464C442.653 10.2027 443.095 10.1036 443.693 9.79299C444.15 9.55558 446.629 7.55883 449.201 5.35574C451.773 3.15266 454.06 1.2771 454.282 1.18791C454.843 0.963191 456.134 0.964662 456.732 1.19067C457.005 1.2942 459.235 3.09658 461.686 5.19576C467.115 9.84466 467.033 9.78122 467.951 10.0275C469.007 10.3103 469.743 10.0867 474.39 8.06988C478.957 6.08821 479.569 5.96812 480.479 6.874L481.02 7.41263M481.02 7.52026C480.964 7.28929 479.708 7.33926 479.473 7.23315C479.028 7.03104 477.8 7.49593 472.056 10.0418C470.114 10.903 469.69 11.0247 468.638 11.0244C467.728 11.024 467.268 10.9243 466.739 10.6141C466.356 10.3888 463.963 8.41854 461.423 6.23587C458.882 4.05302 456.517 2.14804 456.167 2.00257C455.817 1.85693 455.465 1.74916 455.386 1.76296C455.307 1.77675 455.061 1.82291 454.842 1.86575C454.509 1.93012 447.75 7.56232 445.052 10.0225C444.631 10.4067 443.965 10.8096 443.574 10.9179C442.095 11.3263 441.563 11.1928 437.318 9.34961C435.082 8.37882 433.034 7.49612 432.768 7.38799" stroke="#7EB595"/>
<path d="M479.051 6.80173C479.961 6.20884 481.066 6.4788 485.408 8.35381C487.591 9.29683 489.712 10.1034 490.12 10.1464C490.653 10.2027 491.095 10.1036 491.693 9.79299C492.15 9.55558 494.629 7.55883 497.201 5.35574C499.773 3.15266 502.06 1.2771 502.282 1.18791C502.843 0.963191 504.134 0.964662 504.732 1.19067C505.005 1.2942 507.235 3.09658 509.686 5.19576C515.115 9.84466 515.033 9.78122 515.951 10.0275C517.007 10.3103 517.743 10.0867 522.39 8.06988C526.957 6.08821 527.569 5.96812 528.479 6.874L529.02 7.41263M529.02 7.52026C528.964 7.28929 527.708 7.33926 527.473 7.23315C527.028 7.03104 525.8 7.49593 520.056 10.0418C518.114 10.903 517.69 11.0247 516.638 11.0244C515.728 11.024 515.268 10.9243 514.739 10.6141C514.356 10.3888 511.963 8.41854 509.423 6.23587C506.882 4.05302 504.517 2.14804 504.167 2.00257C503.817 1.85693 503.465 1.74916 503.386 1.76296C503.307 1.77675 503.061 1.82291 502.842 1.86575C502.509 1.93012 495.75 7.56232 493.052 10.0225C492.631 10.4067 491.965 10.8096 491.574 10.9179C490.095 11.3263 489.563 11.1928 485.318 9.34961C483.082 8.37882 481.034 7.49612 480.768 7.38799" stroke="#7EB595"/>
<path d="M527.051 6.80173C527.961 6.20884 529.066 6.4788 533.408 8.35381C535.591 9.29683 537.712 10.1034 538.12 10.1464C538.653 10.2027 539.095 10.1036 539.693 9.79299C540.15 9.55558 542.629 7.55883 545.201 5.35574C547.773 3.15266 550.06 1.2771 550.282 1.18791C550.843 0.963191 552.134 0.964662 552.732 1.19067C553.005 1.2942 555.235 3.09658 557.686 5.19576C563.115 9.84466 563.033 9.78122 563.951 10.0275C565.007 10.3103 565.743 10.0867 570.39 8.06988C574.957 6.08821 575.569 5.96812 576.479 6.874L577.02 7.41263M577.02 7.52026C576.964 7.28929 575.708 7.33926 575.473 7.23315C575.028 7.03104 573.8 7.49593 568.056 10.0418C566.114 10.903 565.69 11.0247 564.638 11.0244C563.728 11.024 563.268 10.9243 562.739 10.6141C562.356 10.3888 559.963 8.41854 557.423 6.23587C554.882 4.05302 552.517 2.14804 552.167 2.00257C551.817 1.85693 551.465 1.74916 551.386 1.76296C551.307 1.77675 551.061 1.82291 550.842 1.86575C550.509 1.93012 543.75 7.56232 541.052 10.0225C540.631 10.4067 539.965 10.8096 539.574 10.9179C538.095 11.3263 537.563 11.1928 533.318 9.34961C531.082 8.37882 529.034 7.49612 528.768 7.38799" stroke="#7EB595"/>
<path d="M575.051 6.80173C575.961 6.20884 577.066 6.4788 581.408 8.35381C583.591 9.29683 585.712 10.1034 586.12 10.1464C586.653 10.2027 587.095 10.1036 587.693 9.79299C588.15 9.55558 590.629 7.55883 593.201 5.35574C595.773 3.15266 598.06 1.2771 598.282 1.18791C598.843 0.963191 600.134 0.964662 600.732 1.19067C601.005 1.2942 603.235 3.09658 605.686 5.19576C611.115 9.84466 611.033 9.78122 611.951 10.0275C613.007 10.3103 613.743 10.0867 618.39 8.06988C622.957 6.08821 623.569 5.96812 624.479 6.874L625.02 7.41263M625.02 7.52026C624.964 7.28929 623.708 7.33926 623.473 7.23315C623.028 7.03104 621.8 7.49593 616.056 10.0418C614.114 10.903 613.69 11.0247 612.638 11.0244C611.728 11.024 611.268 10.9243 610.739 10.6141C610.356 10.3888 607.963 8.41854 605.423 6.23587C602.882 4.05302 600.517 2.14804 600.167 2.00257C599.817 1.85693 599.465 1.74916 599.386 1.76296C599.307 1.77675 599.061 1.82291 598.842 1.86575C598.509 1.93012 591.75 7.56232 589.052 10.0225C588.631 10.4067 587.965 10.8096 587.574 10.9179C586.095 11.3263 585.563 11.1928 581.318 9.34961C579.082 8.37882 577.034 7.49612 576.768 7.38799" stroke="#7EB595"/>
<path d="M623.051 6.80173C623.961 6.20884 625.066 6.4788 629.408 8.35381C631.591 9.29683 633.712 10.1034 634.12 10.1464C634.653 10.2027 635.095 10.1036 635.693 9.79299C636.15 9.55558 638.629 7.55883 641.201 5.35574C643.773 3.15266 646.06 1.2771 646.282 1.18791C646.843 0.963191 648.134 0.964662 648.732 1.19067C649.005 1.2942 651.235 3.09658 653.686 5.19576C659.115 9.84466 659.033 9.78122 659.951 10.0275C661.007 10.3103 661.743 10.0867 666.39 8.06988C670.957 6.08821 671.569 5.96812 672.479 6.874L673.02 7.41263M673.02 7.52026C672.964 7.28929 671.708 7.33926 671.473 7.23315C671.028 7.03104 669.8 7.49593 664.056 10.0418C662.114 10.903 661.69 11.0247 660.638 11.0244C659.728 11.024 659.268 10.9243 658.739 10.6141C658.356 10.3888 655.963 8.41854 653.423 6.23587C650.882 4.05302 648.517 2.14804 648.167 2.00257C647.817 1.85693 647.465 1.74916 647.386 1.76296C647.307 1.77675 647.061 1.82291 646.842 1.86575C646.509 1.93012 639.75 7.56232 637.052 10.0225C636.631 10.4067 635.965 10.8096 635.574 10.9179C634.095 11.3263 633.563 11.1928 629.318 9.34961C627.082 8.37882 625.034 7.49612 624.768 7.38799" stroke="#7EB595"/>
<path d="M671.051 6.80173C671.961 6.20884 673.066 6.4788 677.408 8.35381C679.591 9.29683 681.712 10.1034 682.12 10.1464C682.653 10.2027 683.095 10.1036 683.693 9.79299C684.15 9.55558 686.629 7.55883 689.201 5.35574C691.773 3.15266 694.06 1.2771 694.282 1.18791C694.843 0.963191 696.134 0.964662 696.732 1.19067C697.005 1.2942 699.235 3.09658 701.686 5.19576C707.115 9.84466 707.033 9.78122 707.951 10.0275C709.007 10.3103 709.743 10.0867 714.39 8.06988C718.957 6.08821 719.569 5.96812 720.479 6.874L721.02 7.41263M721.02 7.52026C720.964 7.28929 719.708 7.33926 719.473 7.23315C719.028 7.03104 717.8 7.49593 712.056 10.0418C710.114 10.903 709.69 11.0247 708.638 11.0244C707.728 11.024 707.268 10.9243 706.739 10.6141C706.356 10.3888 703.963 8.41854 701.423 6.23587C698.882 4.05302 696.517 2.14804 696.167 2.00257C695.817 1.85693 695.465 1.74916 695.386 1.76296C695.307 1.77675 695.061 1.82291 694.842 1.86575C694.509 1.93012 687.75 7.56232 685.052 10.0225C684.631 10.4067 683.965 10.8096 683.574 10.9179C682.095 11.3263 681.563 11.1928 677.318 9.34961C675.082 8.37882 673.034 7.49612 672.768 7.38799" stroke="#7EB595"/>
<path d="M815.051 6.80173C815.961 6.20884 817.066 6.4788 821.408 8.35381C823.591 9.29683 825.712 10.1034 826.12 10.1464C826.653 10.2027 827.095 10.1036 827.693 9.79299C828.15 9.55558 830.629 7.55883 833.201 5.35574C835.773 3.15266 838.06 1.2771 838.282 1.18791C838.843 0.963191 840.134 0.964662 840.732 1.19067C841.005 1.2942 843.235 3.09658 845.686 5.19576C851.115 9.84466 851.033 9.78122 851.951 10.0275C853.007 10.3103 853.743 10.0867 858.39 8.06988C862.957 6.08821 863.569 5.96812 864.479 6.874L865.02 7.41263M865.02 7.52026C864.964 7.28929 863.708 7.33926 863.473 7.23315C863.028 7.03104 861.8 7.49593 856.056 10.0418C854.114 10.903 853.69 11.0247 852.638 11.0244C851.728 11.024 851.268 10.9243 850.739 10.6141C850.356 10.3888 847.963 8.41854 845.423 6.23587C842.882 4.05302 840.517 2.14804 840.167 2.00257C839.817 1.85693 839.465 1.74916 839.386 1.76296C839.307 1.77675 839.061 1.82291 838.842 1.86575C838.509 1.93012 831.75 7.56232 829.052 10.0225C828.631 10.4067 827.965 10.8096 827.574 10.9179C826.095 11.3263 825.563 11.1928 821.318 9.34961C819.082 8.37882 817.034 7.49612 816.768 7.38799" stroke="#7EB595"/>
<path d="M959.051 6.80173C959.961 6.20884 961.066 6.4788 965.408 8.35381C967.591 9.29683 969.712 10.1034 970.12 10.1464C970.653 10.2027 971.095 10.1036 971.693 9.79299C972.15 9.55558 974.629 7.55883 977.201 5.35574C979.773 3.15266 982.06 1.2771 982.282 1.18791C982.843 0.963191 984.134 0.964662 984.732 1.19067C985.005 1.2942 987.235 3.09658 989.686 5.19576C995.115 9.84466 995.033 9.78122 995.951 10.0275C997.007 10.3103 997.743 10.0867 1002.39 8.06988C1006.96 6.08821 1007.57 5.96812 1008.48 6.874L1009.02 7.41263M1009.02 7.52026C1008.96 7.28929 1007.71 7.33926 1007.47 7.23315C1007.03 7.03104 1005.8 7.49593 1000.06 10.0418C998.114 10.903 997.69 11.0247 996.638 11.0244C995.728 11.024 995.268 10.9243 994.739 10.6141C994.356 10.3888 991.963 8.41854 989.423 6.23587C986.882 4.05302 984.517 2.14804 984.167 2.00257C983.817 1.85693 983.465 1.74916 983.386 1.76296C983.307 1.77675 983.061 1.82291 982.842 1.86575C982.509 1.93012 975.75 7.56232 973.052 10.0225C972.631 10.4067 971.965 10.8096 971.574 10.9179C970.095 11.3263 969.563 11.1928 965.318 9.34961C963.082 8.37882 961.034 7.49612 960.768 7.38799" stroke="#7EB595"/>
<path d="M1103.05 6.80173C1103.96 6.20884 1105.07 6.4788 1109.41 8.35381C1111.59 9.29683 1113.71 10.1034 1114.12 10.1464C1114.65 10.2027 1115.09 10.1036 1115.69 9.79299C1116.15 9.55558 1118.63 7.55883 1121.2 5.35574C1123.77 3.15266 1126.06 1.2771 1126.28 1.18791C1126.84 0.963191 1128.13 0.964662 1128.73 1.19067C1129.01 1.2942 1131.23 3.09658 1133.69 5.19576C1139.12 9.84466 1139.03 9.78122 1139.95 10.0275C1141.01 10.3103 1141.74 10.0867 1146.39 8.06988C1150.96 6.08821 1151.57 5.96812 1152.48 6.874L1153.02 7.41263M1153.02 7.52026C1152.96 7.28929 1151.71 7.33926 1151.47 7.23315C1151.03 7.03104 1149.8 7.49593 1144.06 10.0418C1142.11 10.903 1141.69 11.0247 1140.64 11.0244C1139.73 11.024 1139.27 10.9243 1138.74 10.6141C1138.36 10.3888 1135.96 8.41854 1133.42 6.23587C1130.88 4.05302 1128.52 2.14804 1128.17 2.00257C1127.82 1.85693 1127.47 1.74916 1127.39 1.76296C1127.31 1.77675 1127.06 1.82291 1126.84 1.86575C1126.51 1.93012 1119.75 7.56232 1117.05 10.0225C1116.63 10.4067 1115.97 10.8096 1115.57 10.9179C1114.1 11.3263 1113.56 11.1928 1109.32 9.34961C1107.08 8.37882 1105.03 7.49612 1104.77 7.38799" stroke="#7EB595"/>
<path d="M1247.05 6.80173C1247.96 6.20884 1249.07 6.4788 1253.41 8.35381C1255.59 9.29683 1257.71 10.1034 1258.12 10.1464C1258.65 10.2027 1259.09 10.1036 1259.69 9.79299C1260.15 9.55558 1262.63 7.55883 1265.2 5.35574C1267.77 3.15266 1270.06 1.2771 1270.28 1.18791C1270.84 0.963191 1272.13 0.964662 1272.73 1.19067C1273.01 1.2942 1275.23 3.09658 1277.69 5.19576C1283.12 9.84466 1283.03 9.78122 1283.95 10.0275C1285.01 10.3103 1285.74 10.0867 1290.39 8.06988C1294.96 6.08821 1295.57 5.96812 1296.48 6.874L1297.02 7.41263M1297.02 7.52026C1296.96 7.28929 1295.71 7.33926 1295.47 7.23315C1295.03 7.03104 1293.8 7.49593 1288.06 10.0418C1286.11 10.903 1285.69 11.0247 1284.64 11.0244C1283.73 11.024 1283.27 10.9243 1282.74 10.6141C1282.36 10.3888 1279.96 8.41854 1277.42 6.23587C1274.88 4.05302 1272.52 2.14804 1272.17 2.00257C1271.82 1.85693 1271.47 1.74916 1271.39 1.76296C1271.31 1.77675 1271.06 1.82291 1270.84 1.86575C1270.51 1.93012 1263.75 7.56232 1261.05 10.0225C1260.63 10.4067 1259.97 10.8096 1259.57 10.9179C1258.1 11.3263 1257.56 11.1928 1253.32 9.34961C1251.08 8.37882 1249.03 7.49612 1248.77 7.38799" stroke="#7EB595"/>
<path d="M1391.05 6.80173C1391.96 6.20884 1393.07 6.4788 1397.41 8.35381C1399.59 9.29683 1401.71 10.1034 1402.12 10.1464C1402.65 10.2027 1403.09 10.1036 1403.69 9.79299C1404.15 9.55558 1406.63 7.55883 1409.2 5.35574C1411.77 3.15266 1414.06 1.2771 1414.28 1.18791C1414.84 0.963191 1416.13 0.964662 1416.73 1.19067C1417.01 1.2942 1419.23 3.09658 1421.69 5.19576C1427.12 9.84466 1427.03 9.78122 1427.95 10.0275C1429.01 10.3103 1429.74 10.0867 1434.39 8.06988C1438.96 6.08821 1439.57 5.96812 1440.48 6.874L1441.02 7.41263M1441.02 7.52026C1440.96 7.28929 1439.71 7.33926 1439.47 7.23315C1439.03 7.03104 1437.8 7.49593 1432.06 10.0418C1430.11 10.903 1429.69 11.0247 1428.64 11.0244C1427.73 11.024 1427.27 10.9243 1426.74 10.6141C1426.36 10.3888 1423.96 8.41854 1421.42 6.23587C1418.88 4.05302 1416.52 2.14804 1416.17 2.00257C1415.82 1.85693 1415.47 1.74916 1415.39 1.76296C1415.31 1.77675 1415.06 1.82291 1414.84 1.86575C1414.51 1.93012 1407.75 7.56232 1405.05 10.0225C1404.63 10.4067 1403.97 10.8096 1403.57 10.9179C1402.1 11.3263 1401.56 11.1928 1397.32 9.34961C1395.08 8.37882 1393.03 7.49612 1392.77 7.38799" stroke="#7EB595"/>
<path d="M719.051 6.80173C719.961 6.20884 721.066 6.4788 725.408 8.35381C727.591 9.29683 729.712 10.1034 730.12 10.1464C730.653 10.2027 731.095 10.1036 731.693 9.79299C732.15 9.55558 734.629 7.55883 737.201 5.35574C739.773 3.15266 742.06 1.2771 742.282 1.18791C742.843 0.963191 744.134 0.964662 744.732 1.19067C745.005 1.2942 747.235 3.09658 749.686 5.19576C755.115 9.84466 755.033 9.78122 755.951 10.0275C757.007 10.3103 757.743 10.0867 762.39 8.06988C766.957 6.08821 767.569 5.96812 768.479 6.874L769.02 7.41263M769.02 7.52026C768.964 7.28929 767.708 7.33926 767.473 7.23315C767.028 7.03104 765.8 7.49593 760.056 10.0418C758.114 10.903 757.69 11.0247 756.638 11.0244C755.728 11.024 755.268 10.9243 754.739 10.6141C754.356 10.3888 751.963 8.41854 749.423 6.23587C746.882 4.05302 744.517 2.14804 744.167 2.00257C743.817 1.85693 743.465 1.74916 743.386 1.76296C743.307 1.77675 743.061 1.82291 742.842 1.86575C742.509 1.93012 735.75 7.56232 733.052 10.0225C732.631 10.4067 731.965 10.8096 731.574 10.9179C730.095 11.3263 729.563 11.1928 725.318 9.34961C723.082 8.37882 721.034 7.49612 720.768 7.38799" stroke="#7EB595"/>
<path d="M863.051 6.80173C863.961 6.20884 865.066 6.4788 869.408 8.35381C871.591 9.29683 873.712 10.1034 874.12 10.1464C874.653 10.2027 875.095 10.1036 875.693 9.79299C876.15 9.55558 878.629 7.55883 881.201 5.35574C883.773 3.15266 886.06 1.2771 886.282 1.18791C886.843 0.963191 888.134 0.964662 888.732 1.19067C889.005 1.2942 891.235 3.09658 893.686 5.19576C899.115 9.84466 899.033 9.78122 899.951 10.0275C901.007 10.3103 901.743 10.0867 906.39 8.06988C910.957 6.08821 911.569 5.96812 912.479 6.874L913.02 7.41263M913.02 7.52026C912.964 7.28929 911.708 7.33926 911.473 7.23315C911.028 7.03104 909.8 7.49593 904.056 10.0418C902.114 10.903 901.69 11.0247 900.638 11.0244C899.728 11.024 899.268 10.9243 898.739 10.6141C898.356 10.3888 895.963 8.41854 893.423 6.23587C890.882 4.05302 888.517 2.14804 888.167 2.00257C887.817 1.85693 887.465 1.74916 887.386 1.76296C887.307 1.77675 887.061 1.82291 886.842 1.86575C886.509 1.93012 879.75 7.56232 877.052 10.0225C876.631 10.4067 875.965 10.8096 875.574 10.9179C874.095 11.3263 873.563 11.1928 869.318 9.34961C867.082 8.37882 865.034 7.49612 864.768 7.38799" stroke="#7EB595"/>
<path d="M1007.05 6.80173C1007.96 6.20884 1009.07 6.4788 1013.41 8.35381C1015.59 9.29683 1017.71 10.1034 1018.12 10.1464C1018.65 10.2027 1019.09 10.1036 1019.69 9.79299C1020.15 9.55558 1022.63 7.55883 1025.2 5.35574C1027.77 3.15266 1030.06 1.2771 1030.28 1.18791C1030.84 0.963191 1032.13 0.964662 1032.73 1.19067C1033.01 1.2942 1035.23 3.09658 1037.69 5.19576C1043.12 9.84466 1043.03 9.78122 1043.95 10.0275C1045.01 10.3103 1045.74 10.0867 1050.39 8.06988C1054.96 6.08821 1055.57 5.96812 1056.48 6.874L1057.02 7.41263M1057.02 7.52026C1056.96 7.28929 1055.71 7.33926 1055.47 7.23315C1055.03 7.03104 1053.8 7.49593 1048.06 10.0418C1046.11 10.903 1045.69 11.0247 1044.64 11.0244C1043.73 11.024 1043.27 10.9243 1042.74 10.6141C1042.36 10.3888 1039.96 8.41854 1037.42 6.23587C1034.88 4.05302 1032.52 2.14804 1032.17 2.00257C1031.82 1.85693 1031.47 1.74916 1031.39 1.76296C1031.31 1.77675 1031.06 1.82291 1030.84 1.86575C1030.51 1.93012 1023.75 7.56232 1021.05 10.0225C1020.63 10.4067 1019.97 10.8096 1019.57 10.9179C1018.1 11.3263 1017.56 11.1928 1013.32 9.34961C1011.08 8.37882 1009.03 7.49612 1008.77 7.38799" stroke="#7EB595"/>
<path d="M1151.05 6.80173C1151.96 6.20884 1153.07 6.4788 1157.41 8.35381C1159.59 9.29683 1161.71 10.1034 1162.12 10.1464C1162.65 10.2027 1163.09 10.1036 1163.69 9.79299C1164.15 9.55558 1166.63 7.55883 1169.2 5.35574C1171.77 3.15266 1174.06 1.2771 1174.28 1.18791C1174.84 0.963191 1176.13 0.964662 1176.73 1.19067C1177.01 1.2942 1179.23 3.09658 1181.69 5.19576C1187.12 9.84466 1187.03 9.78122 1187.95 10.0275C1189.01 10.3103 1189.74 10.0867 1194.39 8.06988C1198.96 6.08821 1199.57 5.96812 1200.48 6.874L1201.02 7.41263M1201.02 7.52026C1200.96 7.28929 1199.71 7.33926 1199.47 7.23315C1199.03 7.03104 1197.8 7.49593 1192.06 10.0418C1190.11 10.903 1189.69 11.0247 1188.64 11.0244C1187.73 11.024 1187.27 10.9243 1186.74 10.6141C1186.36 10.3888 1183.96 8.41854 1181.42 6.23587C1178.88 4.05302 1176.52 2.14804 1176.17 2.00257C1175.82 1.85693 1175.47 1.74916 1175.39 1.76296C1175.31 1.77675 1175.06 1.82291 1174.84 1.86575C1174.51 1.93012 1167.75 7.56232 1165.05 10.0225C1164.63 10.4067 1163.97 10.8096 1163.57 10.9179C1162.1 11.3263 1161.56 11.1928 1157.32 9.34961C1155.08 8.37882 1153.03 7.49612 1152.77 7.38799" stroke="#7EB595"/>
<path d="M1295.05 6.80173C1295.96 6.20884 1297.07 6.4788 1301.41 8.35381C1303.59 9.29683 1305.71 10.1034 1306.12 10.1464C1306.65 10.2027 1307.09 10.1036 1307.69 9.79299C1308.15 9.55558 1310.63 7.55883 1313.2 5.35574C1315.77 3.15266 1318.06 1.2771 1318.28 1.18791C1318.84 0.963191 1320.13 0.964662 1320.73 1.19067C1321.01 1.2942 1323.23 3.09658 1325.69 5.19576C1331.12 9.84466 1331.03 9.78122 1331.95 10.0275C1333.01 10.3103 1333.74 10.0867 1338.39 8.06988C1342.96 6.08821 1343.57 5.96812 1344.48 6.874L1345.02 7.41263M1345.02 7.52026C1344.96 7.28929 1343.71 7.33926 1343.47 7.23315C1343.03 7.03104 1341.8 7.49593 1336.06 10.0418C1334.11 10.903 1333.69 11.0247 1332.64 11.0244C1331.73 11.024 1331.27 10.9243 1330.74 10.6141C1330.36 10.3888 1327.96 8.41854 1325.42 6.23587C1322.88 4.05302 1320.52 2.14804 1320.17 2.00257C1319.82 1.85693 1319.47 1.74916 1319.39 1.76296C1319.31 1.77675 1319.06 1.82291 1318.84 1.86575C1318.51 1.93012 1311.75 7.56232 1309.05 10.0225C1308.63 10.4067 1307.97 10.8096 1307.57 10.9179C1306.1 11.3263 1305.56 11.1928 1301.32 9.34961C1299.08 8.37882 1297.03 7.49612 1296.77 7.38799" stroke="#7EB595"/>
<path d="M1439.05 6.80173C1439.96 6.20884 1441.07 6.4788 1445.41 8.35381C1447.59 9.29683 1449.71 10.1034 1450.12 10.1464C1450.65 10.2027 1451.09 10.1036 1451.69 9.79299C1452.15 9.55558 1454.63 7.55883 1457.2 5.35574C1459.77 3.15266 1462.06 1.2771 1462.28 1.18791C1462.84 0.963191 1464.13 0.964662 1464.73 1.19067C1465.01 1.2942 1467.23 3.09658 1469.69 5.19576C1475.12 9.84466 1475.03 9.78122 1475.95 10.0275C1477.01 10.3103 1477.74 10.0867 1482.39 8.06988C1486.96 6.08821 1487.57 5.96812 1488.48 6.874L1489.02 7.41263M1489.02 7.52026C1488.96 7.28929 1487.71 7.33926 1487.47 7.23315C1487.03 7.03104 1485.8 7.49593 1480.06 10.0418C1478.11 10.903 1477.69 11.0247 1476.64 11.0244C1475.73 11.024 1475.27 10.9243 1474.74 10.6141C1474.36 10.3888 1471.96 8.41854 1469.42 6.23587C1466.88 4.05302 1464.52 2.14804 1464.17 2.00257C1463.82 1.85693 1463.47 1.74916 1463.39 1.76296C1463.31 1.77675 1463.06 1.82291 1462.84 1.86575C1462.51 1.93012 1455.75 7.56232 1453.05 10.0225C1452.63 10.4067 1451.97 10.8096 1451.57 10.9179C1450.1 11.3263 1449.56 11.1928 1445.32 9.34961C1443.08 8.37882 1441.03 7.49612 1440.77 7.38799" stroke="#7EB595"/>
<path d="M767.051 6.80173C767.961 6.20884 769.066 6.4788 773.408 8.35381C775.591 9.29683 777.712 10.1034 778.12 10.1464C778.653 10.2027 779.095 10.1036 779.693 9.79299C780.15 9.55558 782.629 7.55883 785.201 5.35574C787.773 3.15266 790.06 1.2771 790.282 1.18791C790.843 0.963191 792.134 0.964662 792.732 1.19067C793.005 1.2942 795.235 3.09658 797.686 5.19576C803.115 9.84466 803.033 9.78122 803.951 10.0275C805.007 10.3103 805.743 10.0867 810.39 8.06988C814.957 6.08821 815.569 5.96812 816.479 6.874L817.02 7.41263M817.02 7.52026C816.964 7.28929 815.708 7.33926 815.473 7.23315C815.028 7.03104 813.8 7.49593 808.056 10.0418C806.114 10.903 805.69 11.0247 804.638 11.0244C803.728 11.024 803.268 10.9243 802.739 10.6141C802.356 10.3888 799.963 8.41854 797.423 6.23587C794.882 4.05302 792.517 2.14804 792.167 2.00257C791.817 1.85693 791.465 1.74916 791.386 1.76296C791.307 1.77675 791.061 1.82291 790.842 1.86575C790.509 1.93012 783.75 7.56232 781.052 10.0225C780.631 10.4067 779.965 10.8096 779.574 10.9179C778.095 11.3263 777.563 11.1928 773.318 9.34961C771.082 8.37882 769.034 7.49612 768.768 7.38799" stroke="#7EB595"/>
<path d="M911.051 6.80173C911.961 6.20884 913.066 6.4788 917.408 8.35381C919.591 9.29683 921.712 10.1034 922.12 10.1464C922.653 10.2027 923.095 10.1036 923.693 9.79299C924.15 9.55558 926.629 7.55883 929.201 5.35574C931.773 3.15266 934.06 1.2771 934.282 1.18791C934.843 0.963191 936.134 0.964662 936.732 1.19067C937.005 1.2942 939.235 3.09658 941.686 5.19576C947.115 9.84466 947.033 9.78122 947.951 10.0275C949.007 10.3103 949.743 10.0867 954.39 8.06988C958.957 6.08821 959.569 5.96812 960.479 6.874L961.02 7.41263M961.02 7.52026C960.964 7.28929 959.708 7.33926 959.473 7.23315C959.028 7.03104 957.8 7.49593 952.056 10.0418C950.114 10.903 949.69 11.0247 948.638 11.0244C947.728 11.024 947.268 10.9243 946.739 10.6141C946.356 10.3888 943.963 8.41854 941.423 6.23587C938.882 4.05302 936.517 2.14804 936.167 2.00257C935.817 1.85693 935.465 1.74916 935.386 1.76296C935.307 1.77675 935.061 1.82291 934.842 1.86575C934.509 1.93012 927.75 7.56232 925.052 10.0225C924.631 10.4067 923.965 10.8096 923.574 10.9179C922.095 11.3263 921.563 11.1928 917.318 9.34961C915.082 8.37882 913.034 7.49612 912.768 7.38799" stroke="#7EB595"/>
<path d="M1055.05 6.80173C1055.96 6.20884 1057.07 6.4788 1061.41 8.35381C1063.59 9.29683 1065.71 10.1034 1066.12 10.1464C1066.65 10.2027 1067.09 10.1036 1067.69 9.79299C1068.15 9.55558 1070.63 7.55883 1073.2 5.35574C1075.77 3.15266 1078.06 1.2771 1078.28 1.18791C1078.84 0.963191 1080.13 0.964662 1080.73 1.19067C1081.01 1.2942 1083.23 3.09658 1085.69 5.19576C1091.12 9.84466 1091.03 9.78122 1091.95 10.0275C1093.01 10.3103 1093.74 10.0867 1098.39 8.06988C1102.96 6.08821 1103.57 5.96812 1104.48 6.874L1105.02 7.41263M1105.02 7.52026C1104.96 7.28929 1103.71 7.33926 1103.47 7.23315C1103.03 7.03104 1101.8 7.49593 1096.06 10.0418C1094.11 10.903 1093.69 11.0247 1092.64 11.0244C1091.73 11.024 1091.27 10.9243 1090.74 10.6141C1090.36 10.3888 1087.96 8.41854 1085.42 6.23587C1082.88 4.05302 1080.52 2.14804 1080.17 2.00257C1079.82 1.85693 1079.47 1.74916 1079.39 1.76296C1079.31 1.77675 1079.06 1.82291 1078.84 1.86575C1078.51 1.93012 1071.75 7.56232 1069.05 10.0225C1068.63 10.4067 1067.97 10.8096 1067.57 10.9179C1066.1 11.3263 1065.56 11.1928 1061.32 9.34961C1059.08 8.37882 1057.03 7.49612 1056.77 7.38799" stroke="#7EB595"/>
<path d="M1199.05 6.80173C1199.96 6.20884 1201.07 6.4788 1205.41 8.35381C1207.59 9.29683 1209.71 10.1034 1210.12 10.1464C1210.65 10.2027 1211.09 10.1036 1211.69 9.79299C1212.15 9.55558 1214.63 7.55883 1217.2 5.35574C1219.77 3.15266 1222.06 1.2771 1222.28 1.18791C1222.84 0.963191 1224.13 0.964662 1224.73 1.19067C1225.01 1.2942 1227.23 3.09658 1229.69 5.19576C1235.12 9.84466 1235.03 9.78122 1235.95 10.0275C1237.01 10.3103 1237.74 10.0867 1242.39 8.06988C1246.96 6.08821 1247.57 5.96812 1248.48 6.874L1249.02 7.41263M1249.02 7.52026C1248.96 7.28929 1247.71 7.33926 1247.47 7.23315C1247.03 7.03104 1245.8 7.49593 1240.06 10.0418C1238.11 10.903 1237.69 11.0247 1236.64 11.0244C1235.73 11.024 1235.27 10.9243 1234.74 10.6141C1234.36 10.3888 1231.96 8.41854 1229.42 6.23587C1226.88 4.05302 1224.52 2.14804 1224.17 2.00257C1223.82 1.85693 1223.47 1.74916 1223.39 1.76296C1223.31 1.77675 1223.06 1.82291 1222.84 1.86575C1222.51 1.93012 1215.75 7.56232 1213.05 10.0225C1212.63 10.4067 1211.97 10.8096 1211.57 10.9179C1210.1 11.3263 1209.56 11.1928 1205.32 9.34961C1203.08 8.37882 1201.03 7.49612 1200.77 7.38799" stroke="#7EB595"/>
<path d="M1343.05 6.80173C1343.96 6.20884 1345.07 6.4788 1349.41 8.35381C1351.59 9.29683 1353.71 10.1034 1354.12 10.1464C1354.65 10.2027 1355.09 10.1036 1355.69 9.79299C1356.15 9.55558 1358.63 7.55883 1361.2 5.35574C1363.77 3.15266 1366.06 1.2771 1366.28 1.18791C1366.84 0.963191 1368.13 0.964662 1368.73 1.19067C1369.01 1.2942 1371.23 3.09658 1373.69 5.19576C1379.12 9.84466 1379.03 9.78122 1379.95 10.0275C1381.01 10.3103 1381.74 10.0867 1386.39 8.06988C1390.96 6.08821 1391.57 5.96812 1392.48 6.874L1393.02 7.41263M1393.02 7.52026C1392.96 7.28929 1391.71 7.33926 1391.47 7.23315C1391.03 7.03104 1389.8 7.49593 1384.06 10.0418C1382.11 10.903 1381.69 11.0247 1380.64 11.0244C1379.73 11.024 1379.27 10.9243 1378.74 10.6141C1378.36 10.3888 1375.96 8.41854 1373.42 6.23587C1370.88 4.05302 1368.52 2.14804 1368.17 2.00257C1367.82 1.85693 1367.47 1.74916 1367.39 1.76296C1367.31 1.77675 1367.06 1.82291 1366.84 1.86575C1366.51 1.93012 1359.75 7.56232 1357.05 10.0225C1356.63 10.4067 1355.97 10.8096 1355.57 10.9179C1354.1 11.3263 1353.56 11.1928 1349.32 9.34961C1347.08 8.37882 1345.03 7.49612 1344.77 7.38799" stroke="#7EB595"/>
<path d="M48.1338 6.80173C49.0431 6.20884 50.1481 6.4788 54.4903 8.35381C56.6739 9.29683 58.7942 10.1034 59.2022 10.1464C59.7358 10.2027 60.1771 10.1036 60.7754 9.79299C61.2327 9.55558 63.7113 7.55883 66.2836 5.35574C68.8557 3.15266 71.1423 1.2771 71.365 1.18791C71.9256 0.963191 73.2165 0.964662 73.814 1.19067C74.0877 1.2942 76.3174 3.09658 78.7689 5.19576C84.1976 9.84466 84.1156 9.78122 85.0338 10.0275C86.0896 10.3103 86.8252 10.0867 91.4729 8.06988C96.0395 6.08821 96.6513 5.96812 97.5615 6.874L98.1027 7.41263M97.0839 7.84626C97.0277 7.61528 96.7901 7.33926 96.5558 7.23315C96.1103 7.03104 94.8824 7.49593 89.1388 10.0418C87.196 10.903 86.7727 11.0247 85.7204 11.0244C84.8109 11.024 84.3501 10.9243 83.822 10.6141C83.4386 10.3888 81.0459 8.41854 78.5052 6.23587C75.9645 4.05302 73.5993 2.14804 73.2494 2.00257C72.8994 1.85693 72.5479 1.74916 72.4685 1.76296C72.389 1.77675 72.144 1.82291 71.9241 1.86575C71.5919 1.93012 64.8322 7.56232 62.1344 10.0225C61.7131 10.4067 61.0479 10.8096 60.6562 10.9179C59.1778 11.3263 58.6451 11.1928 54.4005 9.34961C52.1647 8.37882 50.117 7.49612 49.8502 7.38799C49.216 7.13108 48.8352 6.90035 48.5514 7.52026" stroke="#7EB595"/>
</svg>
