<svg width="40" height="40" viewBox="0 0 40 40" fill="none" xmlns="http://www.w3.org/2000/svg">
<path opacity="0.3" d="M24.9998 36.6667C29.6022 36.6667 33.3332 32.9357 33.3332 28.3333C33.3332 23.731 29.6022 20 24.9998 20C20.3975 20 16.6665 23.731 16.6665 28.3333C16.6665 32.9357 20.3975 36.6667 24.9998 36.6667Z" fill="black"/>
<path opacity="0.3" d="M14.9998 36.6667C19.6022 36.6667 23.3332 32.9357 23.3332 28.3333C23.3332 23.731 19.6022 20 14.9998 20C10.3975 20 6.6665 23.731 6.6665 28.3333C6.6665 32.9357 10.3975 36.6667 14.9998 36.6667Z" fill="black"/>
<path opacity="0.3" d="M11.6668 26.6667C16.2692 26.6667 20.0002 22.9357 20.0002 18.3333C20.0002 13.731 16.2692 10 11.6668 10C7.06446 10 3.3335 13.731 3.3335 18.3333C3.3335 22.9357 7.06446 26.6667 11.6668 26.6667Z" fill="black"/>
<path opacity="0.3" d="M28.3333 26.6667C32.9357 26.6667 36.6667 22.9357 36.6667 18.3333C36.6667 13.731 32.9357 10 28.3333 10C23.731 10 20 13.731 20 18.3333C20 22.9357 23.731 26.6667 28.3333 26.6667Z" fill="black"/>
<path opacity="0.3" d="M19.9998 20C24.6022 20 28.3332 16.2691 28.3332 11.6667C28.3332 7.06433 24.6022 3.33337 19.9998 3.33337C15.3975 3.33337 11.6665 7.06433 11.6665 11.6667C11.6665 16.2691 15.3975 20 19.9998 20Z" fill="black"/>
</svg>
