<svg width="937" height="827" viewBox="0 0 937 827" fill="none" xmlns="http://www.w3.org/2000/svg">
<path d="M934.987 44.182C920.583 57.7292 900.824 64.1413 885.276 76.1458C881.116 75.8565 876.593 74.9887 875.969 80.8222L876.072 80.3402C871.756 80.7259 867.909 81.7383 867.025 86.463L867.285 86.3666C860.681 85.1131 856.417 89.3556 851.633 92.2001C714.513 172.664 599.596 275.402 502.515 395.254C441.573 470.512 391.758 552.277 349.743 637.9C322.912 692.523 298.993 748.303 282.145 806.446C273.305 821.536 259.994 827.08 241.222 826.791C189.692 825.923 138.161 826.598 86.6309 826.453C66.8195 826.405 66.5594 826.067 71.2913 808.712C90.0627 740.011 113.618 672.708 143.101 607.383C149.601 592.968 147.521 583.904 136.809 572.574C103.894 537.766 69.9393 503.922 31.8243 473.983C12.0129 458.459 2.02922 440.042 2.28921 415.84C2.86118 361.941 2.44507 307.992 2.49706 254.044C2.49706 247.922 1.71714 241.702 4.83705 235.869C10.3489 225.552 22.0485 222.129 34.3722 227.48C44.0959 231.723 51.4798 239.822 62.2435 242.474C67.2353 249.995 75.971 253.466 83.1468 258.432C134.521 293.963 182.568 333.014 227.235 375.632C245.365 392.924 260.133 390.867 271.538 369.461C272.214 368.16 272.162 366.472 272.474 364.978C293.013 343.717 306.792 318.02 325.096 295.265C331.7 287.021 328.528 279.307 321.3 272.606C307.78 260.119 294.521 247.391 280.741 235.146C204.251 167.265 120.326 108.447 27.5603 61.056C7.33292 50.7388 -0.102808 38.0593 0.00118556 16.9911C0.729137 -131.499 0.365049 -280.037 0.41702 -428.526C0.417019 -433.926 0.105116 -439.374 0.833094 -444.677C4.52498 -471.29 29.4322 -485.801 56.8354 -476.834C60.9433 -475.484 64.4272 -474.809 68.4831 -475.291C113.93 -456.633 159.273 -437.783 204.875 -419.463C221.827 -412.665 238.674 -413.051 254.066 -423.946C263.634 -425.73 269.509 -432.576 276.321 -438.024C323.38 -475.532 370.907 -512.51 416.977 -551.031C439.025 -569.447 462.06 -578.8 491.387 -571.327C507.299 -559.226 523.47 -547.367 539.07 -534.928C580.357 -502 621.487 -468.831 662.566 -435.662C686.382 -416.426 712.069 -408.664 741.708 -424.139C781.435 -439.76 821.37 -454.85 860.733 -471.193C881.376 -479.775 901.344 -488.019 924.171 -478.714C934.259 -465.649 936.599 -451.186 936.599 -435.228C936.131 -283.845 936.339 -132.463 936.235 18.8712C936.235 27.3081 935.403 35.745 934.987 44.182ZM286.045 380.261C279.025 386.046 276.373 394.531 270.862 401.184C262.594 411.212 248.658 413.912 237.946 406.729C228.015 400.075 217.927 392.94 210.075 384.262C167.592 337.498 116.53 299.989 62.8154 265.229C54.0796 255.635 42.172 249.85 31.1483 243.197C23.6085 238.617 18.6166 241.028 18.4086 249.85C18.3046 253.707 18.3047 257.564 18.3047 261.372C18.3047 311.416 18.8767 361.41 18.0448 411.453C17.6808 433.245 25.9485 449.54 43.836 463.618C84.4989 495.485 120.482 531.691 155.009 569.248C166.085 581.301 168.06 591.28 161.145 606.322C132.753 667.839 110.082 731.333 91.6748 796.08C90.3228 800.901 86.3188 805.771 91.8826 811.749C143.465 811.749 195.724 811.749 247.982 811.749C252.194 811.749 256.25 811.315 258.746 807.458C264.934 804.855 265.402 799.214 267.118 794.152C289.945 725.114 318.648 658.245 353.175 593.498C397.842 509.707 450.776 430.641 513.383 357.36C620.292 232.253 746.596 127.732 897.132 49.4369C914.967 40.1805 921.207 30.0561 921.051 11.4467C919.751 -136.416 919.543 -284.279 918.971 -432.142C918.815 -469.024 909.767 -474.279 872.381 -459.189C831.302 -442.604 790.015 -426.357 749.196 -409.194C714.357 -394.538 683.054 -398.636 654.299 -421.584C649.879 -425.104 645.615 -428.719 641.195 -432.239C594.032 -469.94 546.818 -507.592 499.655 -545.293C490.711 -552.477 481.559 -558.985 468.716 -557.491C458.056 -559.901 449.112 -556.334 441.365 -550.066C390.978 -509.328 338.98 -470.277 290.257 -427.755C288.177 -426.55 285.837 -425.586 284.121 -424.043C255.99 -398.346 224.427 -393.574 188.288 -408.712C145.909 -426.405 102.906 -442.893 60.2153 -459.912C32.1881 -470.229 18.0966 -462.563 16.9006 -436.24C16.7446 -432.383 16.9006 -428.526 16.9006 -424.67C16.9007 -279.072 17.2126 -133.475 16.5367 12.1218C16.4327 30.2491 21.4765 40.8074 39.728 50.2085C146.533 105.217 241.43 174.834 326.604 255.973C350.419 278.632 350.783 287.021 331.232 313.971C315.528 335.666 298.057 356.348 286.097 380.261L286.045 380.261Z" fill="#262A56" fill-opacity="0.1"/>
</svg>
