<svg width="239" height="163" viewBox="0 0 239 163" fill="none" xmlns="http://www.w3.org/2000/svg">
<g opacity="0.3">
<path d="M88.9708 150.775L79.4625 145.342L82.1792 139.908C82.1792 139.908 85.575 133.117 87.6125 122.25C85.575 122.25 83.5375 122.25 81.5 122.25C59.0875 122.25 40.75 103.912 40.75 81.5C40.75 59.0875 59.0875 40.75 81.5 40.75C103.912 40.75 122.25 59.0875 122.25 81.5C122.25 124.287 93.725 147.379 92.3667 148.058L88.9708 150.775ZM101.875 101.875V112.742V113.421C105.95 105.271 108.667 94.4042 108.667 80.8208C108.667 65.8792 96.4417 53.6542 81.5 53.6542C66.5583 53.6542 54.3333 65.8792 54.3333 80.8208C54.3333 95.7625 66.5583 107.987 81.5 107.987C84.8958 107.987 88.9708 107.308 92.3667 105.95L101.875 101.875Z" fill="#C6F1E6"/>
<path opacity="0.3" d="M88.2915 142.625C88.2915 142.625 115.458 121.571 115.458 81.5C115.458 62.4833 100.517 47.5416 81.4998 47.5416C62.4832 47.5416 47.5415 62.4833 47.5415 81.5C47.5415 100.517 62.4832 115.458 81.4998 115.458C86.254 115.458 91.0082 114.779 95.0832 112.742C94.404 131.079 88.2915 142.625 88.2915 142.625Z" fill="#C6F1E6"/>
<path d="M164.051 150.775L154.543 145.342L157.259 139.908C157.259 139.908 160.655 133.117 162.693 122.25C160.655 122.25 158.618 122.25 156.58 122.25C134.168 122.25 115.83 103.912 115.83 81.5C115.83 59.0875 134.168 40.75 156.58 40.75C178.993 40.75 197.33 59.0875 197.33 81.5C197.33 124.287 168.805 147.379 167.447 148.058L164.051 150.775ZM176.955 101.875V112.742V113.421C181.03 105.271 183.747 94.4042 183.747 80.8208C183.747 65.8792 171.522 53.6542 156.58 53.6542C141.638 53.6542 129.413 65.8792 129.413 80.8208C129.413 95.7625 141.638 107.987 156.58 107.987C159.976 107.987 164.051 107.308 167.447 105.95L176.955 101.875Z" fill="#C6F1E6"/>
<path opacity="0.3" d="M163.372 142.625C163.372 142.625 190.538 121.571 190.538 81.5C190.538 62.4833 175.597 47.5416 156.58 47.5416C137.563 47.5416 122.622 62.4833 122.622 81.5C122.622 100.517 137.563 115.458 156.58 115.458C161.334 115.458 166.088 114.779 170.163 112.742C169.484 131.079 163.372 142.625 163.372 142.625Z" fill="#C6F1E6"/>
</g>
</svg>
