<svg width="28" height="62" viewBox="0 0 28 62" fill="none" xmlns="http://www.w3.org/2000/svg">
<path d="M22.3594 1.74219L5.93359 8.26563L9.70313 17.7578H16.6367C15.1328 9.63281 24.1562 6.27344 24.1562 6.27344L22.3594 1.74219Z" fill="#FE8E46"/>
<path d="M17.3789 17.7579H8.6875V26.4493H17.3789V17.7579Z" fill="#70B8B2"/>
<path d="M17.9844 26.7032H16.7344H9.3711H8.12109L1.57812 40.2775V60.2579H9.3711H16.7344H24.5273V40.2775L17.9844 26.7032Z" fill="#FCDF22"/>
<path d="M16.5586 26.7032H9.3711H8.12109L1.57812 40.2775V60.2579H9.3711H10.0352V40.2775L16.5586 26.7032Z" fill="#FCDF22"/>
<path d="M24.5273 61.6251H1.57812C0.816406 61.6251 0.210938 61.0196 0.210938 60.2579V40.2775C0.210938 40.0626 0.250002 39.8673 0.347659 39.6915L6.89063 26.1368C7.125 25.6681 7.59375 25.3556 8.12109 25.3556H17.9844C18.5117 25.3556 18.9805 25.6486 19.2148 26.1368L25.7578 39.6915C25.8555 39.8673 25.8945 40.0822 25.8945 40.2775V60.2579C25.8945 61.0196 25.2891 61.6251 24.5273 61.6251ZM2.94531 58.8907H23.1602V40.59L17.125 28.0704H8.96094L2.92578 40.5704V58.8907H2.94531Z" fill="#463218"/>
<path d="M16.7344 60.2579H24.5273V40.2775L22.1641 35.3556H3.94141L1.57812 40.2775V60.2579H9.3711H16.7344Z" fill="#7EB595"/>
<path d="M12.2031 35.3556H3.94141L1.57812 40.2775V60.2579H9.3711H9.83984V40.2775L12.2031 35.3556Z" fill="#70B8B2"/>
<path d="M24.5273 61.6251H1.57812C0.816406 61.6251 0.210938 61.0197 0.210938 60.2579V40.2775C0.210938 40.0626 0.250002 39.8673 0.347659 39.6915L2.71094 34.7697C2.94531 34.3009 3.41406 33.9884 3.94141 33.9884H22.1445C22.6719 33.9884 23.1406 34.2814 23.375 34.7697L25.7383 39.6915C25.8359 39.8673 25.875 40.0822 25.875 40.2775V60.2579C25.8945 61.0197 25.2891 61.6251 24.5273 61.6251ZM2.94531 58.8907H23.1602V40.59L21.3047 36.7228H4.80078L2.94531 40.59V58.8907Z" fill="#463218"/>
<path d="M24.8986 21.1369C24.1369 21.1369 23.5314 20.5314 23.5314 19.7697C23.5314 14.3791 17.4963 12.8166 17.4181 12.797C16.6759 12.6213 16.2463 11.8791 16.422 11.1369C16.5978 10.3947 17.34 9.965 18.0822 10.1408C20.9142 10.8439 26.2658 13.7541 26.2658 19.7697C26.2658 20.5314 25.6408 21.1369 24.8986 21.1369Z" fill="#463218"/>
<path d="M23.3553 5.60942C22.8084 5.60942 22.3006 5.27739 22.0857 4.75005C21.8123 4.04692 22.1443 3.24614 22.8475 2.97271L25.9139 1.76177C26.617 1.48833 27.4178 1.82036 27.6912 2.52349C27.9647 3.22661 27.6326 4.02739 26.9295 4.30083L23.8631 5.51177C23.6873 5.58989 23.5311 5.60942 23.3553 5.60942Z" fill="#463218"/>
<path d="M17.3789 27.8164H8.6875C7.92578 27.8164 7.32031 27.2109 7.32031 26.4492V17.7578C7.32031 16.9961 7.92578 16.3906 8.6875 16.3906H17.3789C18.1406 16.3906 18.7461 16.9961 18.7461 17.7578V26.4492C18.7461 27.2109 18.1406 27.8164 17.3789 27.8164ZM10.0547 25.082H16.0117V19.125H10.0547V25.082Z" fill="#463218"/>
<path d="M16.6561 19.1251H9.70293C9.13652 19.1251 8.64824 18.7931 8.4334 18.2657L4.66387 8.77356C4.39043 8.07043 4.72246 7.26965 5.42559 6.99622L21.8514 0.472778C22.1834 0.336059 22.574 0.33606 22.9061 0.49231C23.2381 0.629029 23.492 0.902466 23.6287 1.2345L25.4451 5.78528C25.5818 6.11731 25.5818 6.50794 25.4256 6.83997C25.2693 7.172 24.9959 7.44543 24.6443 7.56262C24.3318 7.67981 16.7146 10.6486 17.9842 17.504C18.0623 17.8947 17.9451 18.3243 17.6912 18.6173C17.4373 18.9493 17.0467 19.1251 16.6561 19.1251ZM10.6404 16.3907H15.1326C15.0154 13.2072 16.3045 10.3165 18.9412 7.95325C20.1912 6.83997 21.4998 6.05872 22.4178 5.57044L21.5975 3.50012L7.71074 9.02747L10.6404 16.3907Z" fill="#463218"/>
<path d="M21.2266 44.2423H19.1172V50.2579H21.2266V44.2423Z" fill="white"/>
<path d="M21.2266 40.1407H19.1172V42.4259H21.2266V40.1407Z" fill="white"/>
</svg>
