<svg width="208" height="167" viewBox="0 0 208 167" fill="none" xmlns="http://www.w3.org/2000/svg">
<path d="M20.7951 148.274C16.0964 148.275 11.5255 149.802 7.77355 152.625C4.02159 155.449 1.29255 159.415 -0.000976562 163.924H41.5913C40.2977 159.415 37.5687 155.449 33.8167 152.625C30.0648 149.802 25.4939 148.275 20.7951 148.274ZM77.5317 148.274C72.833 148.275 68.2621 149.802 64.5101 152.625C60.7581 155.449 58.0291 159.415 56.7356 163.924H98.3291C97.0355 159.415 94.3063 155.449 90.5541 152.625C86.8018 149.802 82.2307 148.274 77.5317 148.274Z" fill="#FDD699"/>
<path d="M50.501 141.571C36.387 141.571 24.4849 151.019 20.7954 163.925H80.2066C76.5172 151.019 64.615 141.571 50.501 141.571Z" fill="#FDD699"/>
<path d="M29.2111 156.758C26.3998 156.759 23.6651 157.672 21.4203 159.362C19.1755 161.051 17.5426 163.424 16.7686 166.121H41.6549C40.8808 163.423 39.2477 161.05 37.0026 159.361C34.7576 157.672 32.0225 156.758 29.2111 156.758ZM63.1581 156.758C60.3469 156.759 57.6121 157.672 55.3673 159.362C53.1225 161.051 51.4897 163.424 50.7156 166.121H75.6019C74.8278 163.423 73.1948 161.05 70.9497 159.361C68.7046 157.672 65.9696 156.758 63.1581 156.758Z" fill="#8C8691"/>
<path d="M46.9832 152.747C42.9673 152.746 39.0604 154.051 35.8537 156.465C32.6469 158.878 30.3146 162.267 29.2095 166.121H64.7595C63.6543 162.267 61.3216 158.877 58.1143 156.464C54.907 154.051 50.9996 152.746 46.9832 152.747Z" fill="#8C8691"/>
<path d="M36.8997 108.491C37.4478 108.528 37.9738 108.721 38.4157 109.046C38.8575 109.372 39.1966 109.817 39.393 110.329C39.5893 110.842 39.6347 111.399 39.5236 111.936C39.4126 112.473 39.1498 112.967 38.7664 113.36C40.1036 116.419 41.2536 119.557 42.2103 122.756C42.8295 120.121 43.9503 116.248 45.7834 112.717C45.2988 112.218 45.0116 111.561 44.9748 110.868C44.938 110.174 45.154 109.49 45.5831 108.943C46.0121 108.396 46.6251 108.023 47.3086 107.892C47.9921 107.761 48.7 107.882 49.3013 108.232C49.9026 108.582 50.3567 109.137 50.5795 109.795C50.8024 110.453 50.7789 111.17 50.5135 111.812C50.2481 112.454 49.7588 112.979 49.1359 113.289C48.513 113.598 47.7987 113.673 47.1252 113.498C44.4001 118.788 43.291 125.048 43.132 126.014C44.9871 133.043 45.9411 139.748 46.4297 144.968C47.3062 154.352 46.9106 161.116 46.9067 161.183L45.3555 161.089C45.3555 161.023 45.7433 154.379 44.8823 145.112C44.6238 142.326 44.2269 139.111 43.6297 135.652C42.7248 134.998 39.2344 132.671 33.8489 131.257C33.5639 131.89 33.0591 132.398 32.4278 132.688C31.7966 132.978 31.0814 133.03 30.4146 132.835C29.7477 132.64 29.1741 132.21 28.7998 131.626C28.4255 131.042 28.2758 130.342 28.3783 129.655C28.4807 128.969 28.8285 128.343 29.3573 127.893C29.8861 127.443 30.5603 127.199 31.2552 127.207C31.9501 127.214 32.6189 127.472 33.1379 127.934C33.657 128.395 33.9913 129.028 34.079 129.716C37.3075 130.528 40.397 131.816 43.2457 133.536C42.0668 127.379 40.2389 120.597 37.4117 114.133C37.0086 114.235 36.5883 114.248 36.1795 114.172C35.7707 114.096 35.3833 113.933 35.0439 113.693C34.7045 113.454 34.4211 113.143 34.2134 112.784C34.0057 112.424 33.8786 112.024 33.8407 111.611C33.8029 111.198 33.8553 110.781 33.9943 110.39C34.1332 109.999 34.3555 109.642 34.6458 109.345C34.936 109.048 35.2874 108.817 35.6756 108.669C36.0638 108.52 36.4797 108.457 36.8946 108.485L36.8997 108.491ZM11.2727 124.364C11.7315 124.168 12.2369 124.108 12.7292 124.19C13.2214 124.271 13.6798 124.492 14.0502 124.826C14.4206 125.16 14.6875 125.593 14.8193 126.073C14.9511 126.553 14.9424 127.061 14.7941 127.537C17.141 129.465 19.3685 131.533 21.4646 133.731C20.8777 131.342 20.1848 127.745 20.2106 124.132C19.6125 123.927 19.1087 123.513 18.7925 122.967C18.4763 122.421 18.369 121.778 18.4905 121.159C18.612 120.54 18.954 119.985 19.4534 119.598C19.9527 119.211 20.5756 119.017 21.2068 119.053C21.838 119.089 22.4349 119.352 22.8871 119.793C23.3392 120.234 23.6161 120.824 23.6664 121.453C23.7168 122.082 23.5372 122.708 23.161 123.215C22.7847 123.722 22.2372 124.076 21.6197 124.212C21.6003 129.62 23.2873 135.141 23.5588 135.993C27.9657 140.913 31.5091 145.945 34.0557 149.978C38.6423 157.214 41.1166 162.853 41.1412 162.91L39.8485 163.471C39.8239 163.415 37.3923 157.876 32.8677 150.73C31.3196 148.287 29.6779 145.904 27.9463 143.586C26.9419 143.43 23.1632 142.98 18.2121 144.054C18.2425 144.683 18.0438 145.302 17.6525 145.797C17.2613 146.291 16.704 146.627 16.0835 146.744C15.4631 146.86 14.8215 146.748 14.2772 146.429C13.7329 146.11 13.3227 145.605 13.1224 145.007C12.9221 144.41 12.9452 143.76 13.1874 143.178C13.4297 142.596 13.8747 142.122 14.4403 141.842C15.0059 141.562 15.6538 141.496 16.2644 141.656C16.875 141.816 17.407 142.191 17.7622 142.712C20.7113 142.04 23.7441 141.811 26.7609 142.032C23.2627 137.533 18.9812 132.794 14.0223 128.724C13.738 128.973 13.4031 129.156 13.0407 129.263C12.6783 129.37 12.297 129.397 11.9231 129.343C11.5491 129.288 11.1915 129.154 10.8747 128.948C10.558 128.742 10.2897 128.47 10.0884 128.151C9.88708 127.832 9.75748 127.473 9.70854 127.099C9.6596 126.725 9.69248 126.345 9.80493 125.985C9.91737 125.625 10.1067 125.293 10.3599 125.013C10.613 124.733 10.924 124.511 11.2714 124.363L11.2727 124.364Z" fill="#8C8691"/>
<path d="M106.921 59.5893C106.921 59.5893 101.942 58.8017 99.3469 58.6492C99.285 64.1483 103.098 70.4111 104.75 72.0521C106.819 74.1 108.713 78.4324 108.599 82.4151C108.485 86.3978 114.899 86.1614 114.899 86.1614C120.247 83.5244 119.386 70.849 117.732 63.9916C116.461 65.0558 115.259 66.1991 114.134 67.4147C114.256 66.2956 115.692 63.5314 116.925 61.3183C114.228 53.8496 106.727 41.163 101.951 44.3413C96.6462 47.8637 103.119 48.8024 100.193 54.7827C99.9017 55.3814 99.6871 56.0139 99.5538 56.6656C101.918 57.2013 106.004 58.2911 106.921 59.5893Z" fill="#7EB595"/>
<path d="M117.961 116.617C117.961 116.617 118.032 88.8895 110.205 63.9697" stroke="#35285C" stroke-width="2.2807" stroke-linecap="round" stroke-linejoin="round"/>
<path d="M111.756 69.6473C109.719 68.3804 107.407 67.6701 105.034 67.5828" stroke="#35285C" stroke-width="2.2807" stroke-linecap="round" stroke-linejoin="round"/>
<path d="M126.82 93.2095C131.393 93.7425 135.168 89.8259 135.168 89.8259C140.918 87.8325 147.517 79.7224 149.829 71.4056C151.558 65.2055 155.365 64.0656 161.198 62.1443C158.752 56.644 153.883 51.9308 153.883 51.9308C157.303 52.57 162.113 56.5814 166.08 60.4297C166.65 60.1945 167.251 59.9537 167.857 59.6919C177.516 55.5193 183.91 41.0384 186.264 33.9733C188.618 26.9083 201.347 29.6376 207 11.809C212.652 -6.01949 193.098 3.65344 179.398 3.3367C177.873 3.28624 176.346 3.38215 174.839 3.6231C174.345 7.70279 173.858 12.268 173.968 13.9371C173.968 13.9371 170.56 10.3183 168.269 6.52687C164.241 9.87256 162.379 15.4601 158.334 21.372C151.742 30.9766 140.603 30.6826 133.57 38.9729C126.536 47.2632 131.82 59.121 125.611 71.0832C119.402 83.0454 122.239 92.6747 126.82 93.2095Z" fill="#7EB595"/>
<path d="M119.059 129.648C119.059 129.648 125.659 47.9729 183.954 16.999" stroke="#35285C" stroke-width="2.2807" stroke-linecap="round" stroke-linejoin="round"/>
<path d="M142.147 58.2906C142.147 58.2906 139.718 50.642 135.736 46.1036M157.733 37.2924C157.733 37.2924 167.057 35.5855 174.259 39.0391" stroke="#35285C" stroke-width="2.2807" stroke-linecap="round" stroke-linejoin="round"/>
<path d="M99.6685 118.938H131.987V163.971H99.6685V118.938Z" fill="#504658"/>
<path d="M96.8266 113.776H134.702V154.95C134.702 155.974 134.294 156.956 133.569 157.679C132.843 158.403 131.859 158.81 130.833 158.81H100.693C99.6671 158.81 98.6832 158.403 97.9577 157.679C97.2322 156.956 96.8247 155.974 96.8247 154.95V113.776H96.8266Z" fill="#605767"/>
<path d="M159.701 86.2482C159.701 86.2482 162.883 88.1596 164.42 89.3005C161.865 92.413 156.763 94.1229 155.057 94.2622C152.924 94.4328 149.814 95.9668 148.003 98.2537C146.191 100.541 142.681 97.3767 142.681 97.3767C140.903 93.371 147.36 86.671 151.523 83.6076C151.74 84.805 151.88 86.0141 151.943 87.2275C152.401 86.5421 152.892 84.3139 153.238 82.4905C158.278 79.5771 168.489 76.0086 169.689 80.0478C171.025 84.5294 166.928 81.9971 165.764 86.7328C165.646 87.2061 165.469 87.6622 165.238 88.0905C163.65 87.2736 160.83 85.954 159.701 86.2482Z" fill="#7EB595"/>
<path d="M127.27 113.444C127.27 113.444 140.182 97.9998 155.817 87.4928" stroke="#35285C" stroke-width="2.2807" stroke-linecap="round" stroke-linejoin="round"/>
<path d="M152.699 89.5982C154.512 89.875 156.218 90.6077 157.658 91.7279" stroke="#35285C" stroke-width="2.2807" stroke-linecap="round" stroke-linejoin="round"/>
<path d="M98.4201 90.7783C95.5594 91.1093 93.1979 88.6772 93.1979 88.6772C89.6003 87.4393 85.4727 82.4031 84.0263 77.2386C82.9448 73.3884 80.5631 72.6805 76.9144 71.4875C78.444 68.0719 81.4901 65.1451 81.4901 65.1451C79.3508 65.542 76.3416 68.033 73.86 70.4227C73.5035 70.2767 73.1279 70.1271 72.7488 69.9646C66.7065 67.3735 62.7061 58.3811 61.2335 53.9939C59.761 49.6066 51.7981 51.3015 48.2624 40.2303C44.7266 29.1592 56.9585 35.1659 65.5287 34.9692C66.483 34.9378 67.4382 34.9974 68.3811 35.147C68.6901 37.6804 68.9943 40.5154 68.9254 41.5518C68.9254 41.5518 71.0576 39.3046 72.4909 36.9502C75.0105 39.0278 76.1752 42.4976 78.7055 46.1687C82.8295 52.133 89.7976 51.9504 94.1974 57.0985C98.5972 62.2466 95.292 69.6101 99.176 77.0383C103.06 84.4666 101.286 90.4462 98.4201 90.7783Z" fill="#7EB595"/>
<path d="M102.966 113.52C102.966 113.52 98.8643 62.6249 62.6332 43.3239" stroke="#35285C" stroke-width="2.2807" stroke-linecap="round" stroke-linejoin="round"/>
<path d="M89.0966 68.615C89.0966 68.615 90.629 64.1916 93.1411 61.567M79.264 56.4714C79.264 56.4714 73.3812 55.4843 68.8378 57.4815" stroke="#35285C" stroke-width="2.2807" stroke-linecap="round" stroke-linejoin="round"/>
</svg>
